/* XPM */
static char *grass_bump_128[] = {
/* columns rows colors chars-per-pixel */
"128 128 9 1 ",
"  c #7BC67BC67BC6",
". c #7CB67CB67CB6",
"X c #7D9F7D9F7D9F",
"o c #7E9A7E9A7E9A",
"O c #7F8B7F8B7F8B",
"+ c #807680768076",
"@ c #816481648164",
"# c #824B824B824B",
"$ c #834483448344",
/* pixels */
"+++++++$$+$$+++OOOOOO O OO++++++OOOO OOOOO OOOO++O++++++++++++++++OO+++OOO OOOOO++++OOOOOOOOOOOO OOOOOOO+++OOOO++OOOOOOOO++++OO+",
"+++++++$$$++++++OOOOOOOOOO++++++OOOOOOOOOOOOOOOO+O++++++++++O+++++O+++OOO OOOO++++OOOO+OOOOOOOOOOOOOOOOO++++OO+OO+OO++OO++++++O+",
"+++++++$++++++++OOOOOOOOOO++++++OOOOOOO+OOOOO+++OO++++++OOOOO++++++O++OOO OO++++++OOOOO+OOOOOOOOOOOOOOOO++++OO++O+O+O++++++++++O",
"OO+++++++++++++++OOOOOOOOO++++++OOOOOOO+OOOO++++OO++++++OOOO++++++++++++OOOO++++++OOOOO++OOOOOOOOOOOO++O+++++OO+OOOOOO+++++$+++O",
"OOOO++++O+O+++++++OOOOO+++++++OO+++OO+++OO+++++OOO++++++OOO+++++++++++++OOO++++++++OO++++OOOOOO+++++++++++++++++OOOOOOOO++++++++",
"OOOO++++OOOOO+++++OOOOOO++++++O++++O+++OOO++++++OOO++$++OOO+++++++++++++O+OO++++++++O+++++OOOOOO++++++++++++O+++OO+OOOOO++++++++",
"OOOOOO++OOOO+++O+OOOOOOO++++++++$++++OOO++O+++++OO+++++O+O++++++O++++$+++++O++++++++++++++++OOOO++++++++++++++++OOOOOOOO++++++++",
"OOOOOO++OOOOOO++OOOOOOOO++++++++++++++OOOO+++++++O+++++++++++++++++++++++++O+++++++O+++$++++OOOO$+$+++++++++O+++++++OOOOO+++++++",
"O OOOOOOO OOOOO+O OOOOOO++OOO++++$+++$OOOOOOOO++++OO+++++++++++++++++++++++OO++O++++++++OOOOOOOO++++++++++$+++++OOOOOOOOOO++++++",
"OOOO++OOOOOO+OO+OOOOOOOO++OOOO++++++++OOOOOOOOOO+OOOO+++OOO++++++++++++O++++++++++$+++++OOOOOOOO+++++++++++$++++OOOOOOOOO+++$$$+",
"OOOO+++++OOO+OO+OOOOOOOO+OOOO++++++++++OOOOOOOOOOOOOO+OOOOOOO+O++++O+++OOOO++++++$$+++++OOOOOOOOOO++OOOO+++++++++OOOOOO++++$$++$",
"+OOO+$$++++O+OOOOOOOOOOOOOO+O+++++++++OOOOOOOOOOOOOOOO+O OOOOOOO++OOOOOOOOOO++++++++++++OOOOOOOOO+++OOOO++++++++OOOOOOO+++++$++$",
"+++++++$++++++OOO+OOO++OOOOOOOO+++++OOOOOOOOOOOOOOOOOO+OOOO OOOO+OO+++OO+O++++++OO+++++OOOOOOOOOOOOO OOO+OOOOO++++OOO++++++++$$+",
"++++++$+++++++OOOO++++O+OOOO+OOO++++OOOO OOO++OOOOOOOO++O O OOOO++++++OOO+++++++OOO+++++OOOOOOOO OO  OOOOOOOOO+++OOOO+O+++$$$+$+",
"+++++$++++OOOOOO+++++++OOOOOOOO+++O O OOOOOOOOOOOOOOOO+OOO OO OO+++++++O+O++++++OO++++++OOOOOOOOOO OOOO+OOOOOOOO+OOOOO+++++$++++",
"+OO+++++++OOOOOOO++++++OOOOOO+++OOOOOOOOOOOOOOOOOOOOOO++OOOOOOOO++++++++++++++++OOO+++OOOOOOOOOOOOOOOOO+++OOOOOO+OOO+++++++$++++",
"OOOO++OO OOOO++++++++$+++OOOOOOO+++++++++++++OOO++++OOOOOOOO+++++OO++++++++++++++OOOOOOO++++OOOOOOOOOO++++OOOOOO++++OOOOOOOO++++",
"OOOOOOO+OOOOO+++++++$+++OO OOO++++++O+OO+++++OOO++O+OOOOOOOO++++++++++++OO++$+++OOOOOOOOO++++++OOOOOOO+++++OOOOOO++OOOOOOOOO+++O",
"OOOOOOOOOOO OO++++++$+++OO OO++++++++OOO++$+++++++++OOOOOOOO++O+++++++++OO++++$+OOOOOOOO+++O++++OO++OO++++++OOOOOO+OO+++OOOOO++O",
"OOOOOOOOOOOOOO++++++++++OOOOO+++++++OOOO+$++OOO+++++OOOOOOOOOOOO++OOOOO++OOO++++OOOOOOOOOOOO++++OO++OOOO+++++OOOOOOO+++++OOOOO+O",
"OOO+++++OOOO+++++++++++++++++++$$+++O O ++OOOO++++++OOOOO+OO++OOOOOOOOOOOO+O+OOOOOOOOOOOOOOOOOOO OOOOOO+++$++OOOOOOOO+O++++++++O",
"OO++++++OOOO++++++OO++$+++++++$$+$$+OOOOOOOOOO++++OOOO OO+++++++OOOOOOOO++O+OOOOOOOOOOOOOO O+OOOO OOOOO+++++OOOOO+OOOOOO+$+$++++",
"++++++++++O+++++OOOO+++$+$$++$+$+$+OOOOOO OOOO++++++O OOO+++++++++OOOOOO+O++++OOOOOOOOOOOOOO++O  OOOOO++++$$++OOOOOOOOOO+++++$++",
"++++$+++++++$+++OOOO+++++++++++++++OOOOOOOO OO+++OOOOOOOOOOO++++++OOOOOO++++++OOOO+OOOOOOOOO++O O  OOO++$$+++OOOOOOOOOOO+++++$$+",
"+++++++OOO+++$$++OOOOOO+++OO+++$$+++++OOOOOO+++++O+++OOO+OOOO++O++++OO+++OOOOOOOOO++++++++OOOOOOOOO++O++++++$+++OOOOOOOO+OO+++$+",
"+++O+++OOO+++$$+++OOOOO+++OO++$++++$$+++OOOO+++O++++++OO++OOO++OO+++++++OOOOOOOO+++++++++OOOOOO  O++++++++++++++OO    OO++OO++$+",
"+OOOOOOOOOOO$$$$+++OOOOO+OOO$+++++++++++OOOO+OO+++++++OO++++++O+++++O+OOO OO O O++++++++OOOO OOOOOO+++++++OO++++O  O OOOOOOOO+++",
"++OO  OOOOOO+++++++OOO+++OO+++$+++++++++O OOOOO+++++++++++++++O+++++OOOO OOOOOOO++++OOOOOOOOOO OOO++$$+++OOO++++OOO    OOOOOO+++",
"OOO OO OOOOO++$+$+++OOO+OO++$+$++++++++OOO OOOO+OOOO++++++$++OO+++++++OOOOOOOOOO+++OOOOO OOOO  O+++$$$$+OOOOOOOOO    O OOOOOOOOO",
"OOOOO O OOOO+++++$++OOOOOOO++$$$+++++++OOO OOOO+OOOO++++++++++O++++++OOOOOOOOOOOO++OOOOOOOO O OO+++$$$$+OOOOOOOO OOO OO OOOOOOOO",
"OOOOO O O OOOO+++++OO OOOO+++$+$++++++OOOOOOOOOOOOOO++++++++++OO+++++OOOOOOOOOOOOOOOOOOOOO O  OO++++$$$+OOOOOOOOOO O  OOOO++++OO",
"++OOOOOO  OOO+++++OOO  OOO++++++++++O+OOOOOO++OOOOOO++++++++++++++++O+OOOOOOOOO OOO+++++O O O OO++++$$++OOOO+OOOOOOOOOOOOO++++++",
"++++OOO O OOO+++OOOO  OO OOOOOOOO+OO+++O+++$+++++OOOOOOO++++O++++++++OOO+++O OOOOO++++++OOOOOOOO++O+++$+OO+++++++++++++++++$++++",
"+++OOOOOOO++++++OOO    OOOOOOOOOO+++++O+++++++OOOOOOOOOOO++OOOOOOO+++++O+++OOOO+O++++++++OOOOOO++++O+++$OO+++++$+++++++++++$++++",
"++++OOOO OO+++++OO O   OOOO  OOO++++++O+++++++OOOO++OOOOOOOOOOOOOOOO+OOO++OOOO++O++$+++$++OOOO+++++O+++$OOOO+++++++++$+++++++$++",
"+++++OO+OOO++O++O O   O OOOOO  O$+$+++++++++++++OOOOOOOOOOOOOOOOOOOOO+OOOOOOOO++OO++++++++OOOO++++OO++++OO O+$$+++++++++++$+$+++",
"+OO+++++OO++++++O O   OO OOO  OO++++++++++++++++OOO+$+++OOOOOOOOO OO++OOO+++++++OOOO+O++++++OOOOOOOO+OOOOOOO+++++++$$++O++++++++",
"OOO+++$+++++++O+OO OOOO+OOOOO OO+++++++O++++++++OOO+++++OOOOOOO OOOO++OO+++++$$++OO++O+O+$++++++OOOOOOOO O O+++++$++$++OOOOO+++O",
"OOOO+++$++OOO++OOOOOOO++++OO  OO++++++OO++++++++++++++++OOOOOOOOOOOO+++++$++++++++++++OO++++++++OO OO  OOOOO++++++$++++OOOOOO+OO",
"OO+O++$$++O+O+++OOOOOO++++OOOOOO++++++OO++++++++++++++++OOOOOOOOOOOO++++++++++++$$++OOOO++++++$$OOOOOO OOOOOO+OO+++$+++OOOOO++OO",
"O+OO++$$+++++++++O++++++OO OOOOOOOOOOOO++O++++++O++++$+++OOOO+++OO+++++++$+++++++$++++OOOOOOOO+++OOOOO OOOOOOOOO++$++OOOOO++OO++",
"+OOO++++++++$++$+O+++++$+OOOOOOOOOOOOOO++++++$$+O++++++++OOOO+$$++$+++++++++++++++$+++OOOOOOOO++OOO  OO  OOOOOOO++$$++OOOO++OOO+",
"OOOO+++$$+$++++++++O++++++ OOO++OOOOOO++++$$+++++++++++++++++++++$+$+++++$++++++++$+++OOOOOO++++OOO OOOOOOOOOOO++++++++OO+++OOOO",
"OOO++++$+++$++++OOOO+O++++OOOO+++OOO O++++++++++++++++++++++++$++++++++++++++$+$$$+$++OOOOOO++++OOOOOOO+OOO OO++++++++++++++OOOO",
"OOOO+++++++++++OOOOOO+++++OO++++++++O++OOO+O++++OOOOOOOO+$+++++++++++++++++++++$+$$$++++OOOO+++$OO++OO++OO++OOOO++++OOO++++$O+OO",
"OOOO++$$$$++++OOOO O++++++OO++++++++++OOOOOO++O+OOOOOOOO+$$+O+++++++++++O+++++++$$+$++++OOOO++$$++++OO++OO+++OO+++++OOOO+++$++OO",
"OOOO++$$$+++O+O+OOOOOOOO++OO++$$$$+$++OOOOOOOOOOOOOOOOO O++$OOOO++OOOO+O+++++++$+$$+$+++OO+++++++$$+O+++OO+++++O++++OOOO+++++++O",
"OOOO++++$++OO++++OO+OO++++++++++$$+++++OOOOOOO++OOOOOOOOO+++OO OOO++O++++++++++++++$++++OOO++++++$$$++++OO+++++O++++OOOO++++++OO",
"OOOO+++++++OOO+++++++++++++++++++++++++++OOO+++++OO O O  OOOOOO O OO++++++OOOOOOOO++++++OOOOO+++++$$$+++OO+++++++++OOOOOOOOOOOOO",
" O O+++O+OO+OO+++O++$+$++++++++++++++++++++O+OO++OOOOOO  O      OOO+++++++OO OOOOOO++++OOO OO++O+++++++OOOO+++++++OOOOOOOOOOOOOO",
"OOOOO+++OOOOOOO++++++$$+++OO+O+++$++++++O++OOOOO+OOOOOO O OOO   OOO+++OO+OOOO OO+OOO+++OO OOO++O++++++++OO++++++OOOOOOOOOOOOOOO ",
"   OO+++OOOOOOO+++++$+$+OOOO+OOO++++++++O++OOOOOOOO OOOO OO+OOOOOO+++++OOOOOOOOOOOO++++OOO OO++O++++++++OO+$++++OOOOOOOOOO O OO ",
" OOOO++++OOOOOOO++++++++OOOOOOOOOO+++++++O+++OOOOO OOOOO++++++++OOO++++OOOO OOO+++++++OOO OOOOOO++++O+++++OO++++OOOOOOO+OOOOO OO",
"OO OOOO+++OOOOOO++++++++OOOOOOOOOO+++++++++++++OOOOOOO++++++++++OOOO+++OOO   O++++++++OOOO OOO O++++O+O+++OO+++OOOOOOOO+OOOOOOOO",
"OOOOOO++++OOOOOO++++++++OOOOOO+OOO++O++++++++OOOOOOO+++O++$+++++ OO++++O OOOO+++++++O+OOOOOOOOO OO++OOOO++OO++++OOO+OO++OOOOOOOO",
"OOOOOO++OOOOOOOO+++OO+++++++OO++O++++++++++++++OOOOO+++++++$++++OOO++++O OOOO++++++++OOOOOOOOOOOOO+OO+OO+++O++++O+++OO+++++OOOOO",
"OOOOOOOOOOOOOOOOO++++++OO++++++++++$+++OOOOOO++O OOO++++$+$+$+++++++++++OOOOOOOOO+O++++OOOOOOOOOOO+OO+O+++++++++$+$+$+++++++++++",
"OOOOOOOOOOOO+O++O++++++OOO++++++++$++++OOOO++O++OOOO+++++++$$++++$++$+++O O OOOO+OOO++++++OO OOOO++++O+++++$+++$++++++$$+$$+++OO",
"OOOOOO++OOOO++++++$$$+++O+++++OO+$$+++OOOOO++O+++OOO+++++$$$++++++++$+++O OOOOOOOO+O++++++OOOOOO++++++++$++$+++++$++++++$$+++OOO",
"OOO+++++OOOO+++++++++$++O+++OOOO+++$+OOOOOOO++++OOOO++++++$++++O+++++$++OOOOOOO OOOO++O+++OOOO+++++++++++++++++$++++++++++++++OO",
"O+++++++OO+++++++++++$++O+OOOOOO++++$+++O OOOO++OOOO+O+O++++++OO+++++$++OOOOOO OOOO+OOOO+++++O++$+++++++++++O+O+++++OOOOOOOO++++",
"O+++$++++O++++++O++++++$+OOOOOOO++++++++OOOOOO++OOOOOO++++O+++OO++++++++OO OOOOOOO+OOOOO++O+OOOO+++$++$++++$OOOO++++OOOOOOOO++OO",
"O+++++++++++++++O++++++++OOOOOOO+++++++OOOOO++++OOOOOOO++++O++OO++++++++OOOOOOOOOOOOOOOOOOOO+++++$$+$++++++++O+OO++OOOOOOOOOOOOO",
"O+++++++O++++++++O+++++++OO O OO+++++++OOOOO++++OOOO+OO+++OO++OOO++++++OOOOOOOOOOOOOOOOOOOOO+++++++++++++++++++OO+OO OOOO  OOOOO",
"+++OOOO++$+++$+OOO++++++OOOOO OO+++++O++++++++OOOOOO++++OOOOOO OOOOO+++OOOOOOOOO++OOOOOOOOOO+++++$OOOOOO++++$++++++O O     OOOOO",
"+++OOOOO+++++++OO+++++$$OOOOOO  ++++++++++$+++OOOOOO++++OOOO OOOOOOOO+OOOOOOOO+OO+OOOOOOOO+O++++++OOOOOO+++$$$++++OOOO O O   OOO",
"++OOOO+++++$++++++++$+$+OOOO OOO++++++$++++$+++++++OOO++++OOOOO OO OO+++OOOO+++OOOOOOOOOO+O++++++++OOOOO++++$$+$OOOOO  OOO OOOOO",
"++O+++++++++$+OOOO++$++$+OOO OOOO+++++$+++$+++++++OOOO++++OOO O O OO++++OOOO+++OOOOOOO O++O++++++++OOOOO+$+++$$+OOOOOOO   O OOOO",
"+++++++++++++++OOOOO+$$$++OOOOOO+++++++++$++O++O+++++$+$++++O OO OO OO++++++++++OOO+OOOO+++++O++OOO O OOOOO++$++OOOOOOOOO  OOOOO",
"++OO+O+++++++O++OOOO++++++OOO OO+++++O++++++OOOO+++++++++++O OOOOOOOOO++++++++$+OOOOOOOOOO++++++O OO OOOOOOO++$+OOO O  O OOOOOOO",
"OOOO++++OOOOO+OOOOO+++OOOOOOOOOOOOO++O++++$+OOOO++++++$++++OOOOOOOOOO++++++$$+++O+OOOOOOOOO+++++OOO O OOOO++++++OOOO O  OOOOOOOO",
"OOOO+++OOOOOO+++OOOO++OOOOOOOO OOOO++O++++++OOOO+++$$$+++++O OOO OOOO+++++++$$++O++OOO++O+++++++OOOOOOO OO++++++OOOOO  O OOOOOOO",
"OO+++++O+OOOOOOOOOOOOOOOOOOOO O OOOO++OO++++++OO++++++$++++++OOO OOOO+++++++$+++++++++++++++++OOOOOOO OOO OO++++O OOO OOOO++++++",
"OO+++++O++OOOOOOOO OOOOOOOOO O    OOO+OO++++++O+++OO+++$$+++OOOOO OOO+++++++++$++++++++++++O+OOOOOO OOOOOOOO++++OOOOO OO++++++++",
"O+++++++++OOOOOOOOOOOOOOOOOOOO OO OOO+O++++++O+++OOO+++++$++O+OOOOOOOOOO++++++++$++++++++++OO+OO OO  OOO++OO$+$+OOOO OOO+++++$++",
"O+++OOO+OOOOOOOOOOOOOO OOOO+O    OOO++++$+$+++++++OO+++++$$++++OOO  O  O++++++++++++++++O++O++OO O OOOOO+OOO+++$++OO OOO++++$$++",
"+$++++OOOOOOO+++OOOOOOO OO+OOOOO   OOO++++$++++OOOOO+O++++$$++OO O    O O+++++++++++OOOOOOOO+++OO OOO OOO++$+++$++++OOOO++$++$+$",
"$++++OOOO+OOO++++OO OOOOOO++OOOOOOOOO+++++++++OOO OOO+O+++$+++O+OO OO OO++++++++++++OOOOOOOO+++OOO OOOOOO+++$$$++++++OOO$$+++$$+",
"$+++OO+OOOOOOO++++OOOOOOO+++OOOOOOOOOO++++++++OOO OO+OO+++++++++OOOOOOO+++++++++O++++++OOO++O+OOOOOO OOOOOO+$$+$++OO+O++$++$+$$+",
"$$+OOO++OOOOOO++++O OO OO++OOOOOOOOOOOO+++++++OOOOOOOOOO++++++O+OO OOO++++++++++OOO+++++OO++OOOOOOOOOO OOO++$$$++O++++++$+$++++$",
"+$++ OOOOO+++O+++++OOO OOO+O+OO+O++OOOOOOO++++++OOOOOOOOOOOO++OOOOOOOO+++++++++OOOOO+++++++++OOOOOO  OOO+++++$+++OO+OO++++++++++",
"++++OOOOOO+++O+++++OOOOOOO++++++OO+OO OOOO++++++O+OOOOO OOOO+OOOO+++++++$+++++++OOO+++++++O+OOOOO OOOOOO++++$+$+O++OOOO+++++++++",
"+++OO OO O++++++++OOOOOO++O+OO+++OOOOOOOO++O+++O+O++OOOOO++++O OO++++$+$++++++++O+++++++++++OOOO O O OOO+O++$+++++OOOOO+++$+OO++",
"+OO+OO  OO++$+++++OOOOOOOOOO++++++O+OOOOO++OOOOOOO++OOOOO+++OOOOOO+++$++++++++++O+++++++++++OOOOOOOOOO+++O++$+$++++OOOOO++++OO++",
"OOOOO O OO++++$+OOOOOOOOOOOOOOOO++++OOOOO+OOOOOO++++OOOOOOOOOOOOOOO+++++OOOO+OO+++++++++$+++OOO  OOOO+++O++++++$++++OOOO+++++O++",
"OOOOOO O O++++++OOOOOO  OO OOOOO+++OOOOOO+OOOO+O++++OOOOOOOOOOOOOOOO++++OOOOOOOO+++$+++$$+$+OOOOOOOO++++++++++$+++++OOOOO++++OOO",
"OOOO O   OO++++OOOOOOOOOOOOOOOOO++OOOOOOOOOOOOO++++++O++OOOOOOOOOOOOOO++ OOOOO+O+++$$$++++++OOOOOOOO+OO++++O++++++++O++OOOOOOOOO",
"OOO OOO OO+++++OO OOO   OOOOOOOO+OOOOOOOOOOOO+++++++++++OOOOOOOOOOOOOOOOOOOOOO+++++$++$+++++OOOOOOOO+O++++O+++++$+$++++OOOOOOOOO",
"OOO OOO+OO+$+++++++OOO O++++++++++++++O+++OOOO++++$$++++OOOOOOO OOOOO OOOOOO+++++++++++++++++O+OOOOO+O++OOOOOO++++$++O++OOOOOOOO",
"OOOOOOO++++$$++++++OOOO +++++++++++++++OOO++OO+++$++++++OOOOOO OOOO OOO OOOO+$+++++++++$++++OOOOOO++OOOOOOOOOOO++$+++O++OOOOOOOO",
"OOOOOOO++$++++++++++OOOOOO++++++++++++OOOO++++O++$$$$+++OOOO O OOOOOOO OO+OO+++++++++++++++$OOOOOOOOOOOOOOOOOOO+++++++++OOOOOOOO",
"OOOOOOOO++$+++++$+$+OOOOOO++++++$+$+++OOO+++++OO+$++++$+OOOOOOOOOOOOO  OO+O+$+++++++$++++++++OOOOOOOOO+OOOOOO++++$++++++OO OOOOO",
"++++OOOO+++++++$$+++++OO+++++++$$$$+++OO+++++OO++++$++++OOOOOOOOOOOOO   OOO+++++++$+++++++++++OOOOOOOO+OOOOOO++O++++++++O+O+ OOO",
"++++OOOO+OOO++++++$+OOOOO+O+++$+$+++OOOO+++++++++++++++OOOOO+OOOOOOOOOOOOOOO+++$$+++$++++++++++OOOOOOOOOOOO OOOO+++++++$++++OOOO",
"OO++OOO+O+OOOO+++++OOOOOOOO+++$++$$+OOO+++++$+++++OO+OO++++++OOOOOOOO O OOOO$$$++++++++++++++++OOOOOOOOOOOOOOOO OO+++++$++++++OO",
"OOOOOO++++OOOOO+++++OOOOOOOO+++$+++++O++O++++++++OOOOO++++++++++OOOOOOOOOO O+$$+$++$$++$++++O+OO OOOOOOOOOOOOOOOOOOO++++++++++OO",
"+O++OOO++++OOOOOOOOO+OOOOOOOOOOO++++++++OO++OO+O+OOOOOOO+++++$++OOOO OOOOOO+++++++++$+++OOOOOOOOOOOOO OO++$+++OOOOOOOOO+++++++++",
"O+++++++OO+O O OOOOO+OOO O OOO++++++++O++++OOOOOOOOOOOOO++++++++OO OOO OOOOO++++$+$$+$++OOOOO+++OOOOOOOO+++$++++OOOOOOO+++++++++",
"OO++++++OOOOOOOOOOO++++OO O OO++++OO+OO++++OOOOOOOOO++++$+++++++OOOOOOOOOOOO++++++++++$+OOOOO++OOOOO++OO+++$++++OOOO+OOO++++++OO",
"OO++$+++OOOOOOOOO+OO+++OOOO OO+++O+++++++O++OOOOOOOO++++++++++++OOOOO OO+++++++++++++$++OOOOO+OOOOOO++++$$+$$+++OOOOOOO+++++++OO",
"OO+O++++OOOO OOOOOOOOOO++OOOOOOOOOOO++OOOOOOO++OOOOO++++++++++++OOOOOOOO++++O+O+++++$+++OOOOOOOOOOOO+++$$$++$+++OO+++OO+++++++++",
"OOOO+++++OOOOOOOOOOOOOOO+OOOOOOOOOOO+OOOOOOO+O+OOOOOOO+++++$++++OOOOOOOO+++++OO+++O+++$+++OOO  O OOO+++++++$++++OOO+++O+O+++++++",
"OOO++++++OO  OOOOOO  OOO++O+++OOOOOOOOO OOOO+++OOOOOOOOOO++$$++++OOOOO+++$$+OOOOOOOO+++++OOOOOOOOOOOO++$+++++++++++++++++++++++O",
" O+++++$+OOOOOOOOOOOOOOO++OO+++OOO OOOOOOOOOOO+O OOOO OOO++++++++OOO++O+$++++O++OOOOO++++OOOOOO   OOO+++++++$+++++++++++O++OOOOO",
"O OOOO++++++++++++++O+++++OOOOOOOOOOO OO++++++++OOOO+OOOOOOO++++++++OO++$+++++OOOOO OOOO+++OOO OO OO+++++OO+++++OOOO+++++++O+OOO",
"OO OO+++$++++++++$++++++++OOOOOOO OOOOOO+$++++++OO O++++OO+O+++++++OOO++++++++OOOOOO OOO++++OOO  OOO++++++OO++++OO O++++++++O+OO",
"OOO OO+++++++++++++++++++OOOOOOOOOOOO++O++++$+++OOOO+++$+++O+++++++OO++++++++++OOO  OOOO++++OOOOOOOO$+++OO++++++OO OO+++++++OOOO",
"+OOOOO++++$++++++$++++++OOOO+OO OOOOOO+O+++++$$$OOOO++++++OO++++++OOO++O+$+++++OOOOOOOOO++++O O O+OO++++OOO+++++O OOOOOO++++OOOO",
"+++++++++$++++++++$$$$+++++++$++OOOOOOOOOOO++++++++++$$+++++++++OOOOOOOO++$++++OO OOOOOO++++OO++OO++++++OOO+++++OOOO++OO++++O+++",
"++$+O+++++++++O++++$+$$++++++$$$+OOOOOOOOOOOO++$$+++++++++++++$+OOOOOOOO++++++++OOOOOO++$+$++++++O++++$++OO++++$OOOO+++O++$$++++",
"+++++++++++++++++++++$+++++$$+$++OOO OOOOOOOOOO++$+++$+++++O++++++OOOOOOOO++++++OO+O+++++$++++++++++$$++OOO++$++OOOO++++++++$+++",
"++++++++++++++++O+++++++++++$$+$OOOO O OOOOOOOO++++++++$++OO++$+++OOOOOOOO+++OO+++++OOOO++++++++++++++++OOOO++++OOOO++++++++++++",
"+++++++O+OO++++OOOOOOOOO+++$$$+++++OOOO OOOO+OOOOOOOOOOOOOOO+++O+++$+++OOO+++OO+OO++OOOOOO++++++++++++OOOOO+++++++++O++OO++OO+++",
"++++++OOOO++++++OOOOOOOO++++++++OO+OO    OOO++OOOOOOOOO OO OOO+O+$+++++++O++++++OOOOOOOOOO++++$+++++++OOOOO++$++++++OOOOOO+OOOOO",
"OOO+++OOOOOO++++OO OOO++O+++++++OOOO   O OOOOO++OOOOO OOO OOOOOO+++++++++++++++OOOOOOOOO+++$++OO+O++++OOOO+++++++$++OOOO+++OOOOO",
"OO++OOOOOO+O++++OOOOO+++O+++++++OO OO     O OO++OOOOOO O OOOOOOO+++$++++O+++OOOOO O OO+O++++++OOOO++++OOOO++++++++++OOOO+++++OOO",
"++++OOOOOOOOOOO+O+++++++++++$+++ O  O O OOOOO+++OOOO+OOOOOO O   +++++++++++++OOOO OOOO+O++++++OOOOOOOOOOOO OOOO+++++++O+OOOOOOO+",
"++++OOOOOOOO+OO+++++++++++++++++OOOOOO O OOO++++OOOO+OOOO O  OOOOO+++$++++++++OOO  OOOOO++++++OOOOOO OOOOOOOOOO+$++++++OOOOOOOOO",
"++++++O+OOOO+++++$$++$+++++$++++OOOOOOOOOOOO++++++++++OO OOOO  OOOO++++++$+++OOOOO OOOOO+++++++OOO O O  OOOOOOOO+++++OOOOOOOOOOO",
"OO++++++OOOO++++$$$$$+++++++++++OOOOO OOOOOO++$+++++OOOOOOOO  OOOOOO+++++++O+OOOOOOO OOO+++++++OOOOOOOOOOOOOOOOO++++OOOOOOOOOOOO",
"OO+++O++OOOOOOOO+++OOOOO+O+++++++$+++OOO+++++++$++++++++++++++O OO++OOOO+++++++++++OOOOO+O++++O+OO+OOO++++++++OOOOOOO  OOO OOOOO",
"OO++++++OOOOOOOOOOOOOOOOOO++$++$+$$++OOO+++$$$$+++++++++$+++OO OO++++OOO+++OOO++++++OO+OOOOO+++OOO+OOO++$+++OOOOOOOOOOOOO OOO   ",
"OO++++O+OOOOOO OOOOOOO OOOO++$$++$$++++O+++++$+$++++O++++++++OO OO+++O O+++O+++++++OO+++OOOO+++OO+++++++$+$++OO+OOOOOOO   O   O ",
"OO++++++OOO+ OO OOOOOOOOOOO++++$+$++++O+++++++$+++++OO++++++OOOOOO++OOOO+OO+++$++OOO++++OOOO++OOOO++++++$+++++++OOOOO O  O OOO O",
"++++++++++++ O  OOOOOOOO++++$++$++++OOOO++++++++++++OOOO++++OOOOOOOOOOOOOOOO+$+$+OOO+++++OOOOOOO+++++++$++++++++OOOOOO   OOOO OO",
"+++++$+$++++OOOO OO OOOO+++++$++++++OOOOOOO+++++++++OOOOO+++OOO+OO+OOO OOOOO+$++OOOO+++++OOOOOOO++++++++++++++++OOO  OOOO OO OOO",
"+O+++$$$+$++OOO OO OOO++++$+$++++++OOOO  OOOOO++++++++OO+++OOO+++OOOO OOOO+O++++OOOO++++OOOO OOOOO++++$++OOO+++OOOOOOOOOOOOOOO O",
"OO+++++++$$++OOOOO O++++++++++++OOOOOOO OOOOO+++++++++OO++++OO+++OOOOOO OOOOO+++OOOOOO+O+OOOOOOOOO++++++OOO+++OOOOOOO OOOOOO OOO"
};
