/* XPM */
static char *metal_bump_[] = {
/* columns rows colors chars-per-pixel */
"128 128 2 1 ",
"  c #7FF67FF67FF6",
". c #801080108010",
/* pixels */
"....................  ..................................      ..................................................................",
"....................  ..................................    . ..................................................................",
"..........  . .. . .     . .............................    ....................................................................",
"........                 ..   .... .....................    ....................................................................",
"........                    . .... ......... . ... .....        ..... ..........................................................",
"........                         .... .....  ...  ......        .. . ...........................................................",
"........                       ..  . .. .. ...  .  . ...              . ........................................................",
"........                          . . . .. .   .   .   .             . .........................................................",
"............                           .                              . .. ... .................................................",
"............                          .                                 .... ...................................................",
"............                                                            ..... ..................................................",
"............                                                            ...... .................................................",
"...............                                                           .  ...................................................",
".............. .                                                       ... .....................................................",
"...............                                                      .. . ......................................................",
"...............                                                      . .........................................................",
"...............      . .        ............        ............  .................................... .        ................",
". ..............     .    .  . .............        ............  ................................... ..        ................",
"  .....  .......    . . ..  . . ............      .............. ................................... .          ................",
"      .  . ..  .     .     .  ..............      ................................................ .. .         ................",
"       ... . . .       ..  ... ..............       ............................................... .           ........    ....",
"            . .       .   .  ............... ..     ............................................ ... ..         ........    ....",
"             . .        .  ..  .............. .  . ............................................... .           .........  ......",
"                         .. ........................................................................           .........  ......",
"                  .  . . . .......................................................... ........... ..............    ....        ",
"                        . .  ........................................................ . ........................     ...        ",
"                       .  .. ......................................................... ..........................     ..        ",
"                     .   . .........................................................  ... ......................... ....        ",
"....     .  .        . . .....................................  .......................  ...................................    ",
"....  ... .       .         ................................... ...................... . ...................................    ",
"........... .           .  ...................................  ....................... ......................................  ",
"................ .   . . .....................................  ...................... .. ......................................",
".................   . . . .................................     .......  ..  .       ..  .......................................",
"................. .  .   ........................                  ..   .. ..    . .   ... .....................................",
".................  .. ...  ..................... . . .            .             .   . .  .......................................",
"...................  . ...........................                      . .         .    . .....................................",
".................. ....  ....................... .                                . .  .. ..................    ................",
"..................... .... ......................                                     .  .. ............ .      ................",
".................... . . .......................                                          . . ...........       ................",
"................... ............................                                      . .. .. . ........        ................",
".....................  ...............................    ......                         .  ........ .          ................",
".................. ..................................    .......                         . ..  ......           ................",
".................. . .  ............................. .  .......                             . .. ...           ................",
"................ .... ...............................  .. ......                          ... .  ..  .          ................",
"................. . . .................................... .........    .   .             .  .. .  .  .         ................",
".................  . . .............................................  ......  .                . ..  .          ................",
"................ . . ...................................................... ..              . . .. . .          ................",
"..................    .......................................................... .       .   . .. . .           ................",
"..........  ... .   . . .........................................................         . . .  .. .           .    . .........",
"......... ...  . ..   . .................. ...................................... . . .        ... .            ..  . ..........",
"...........   . ..   .  ...........................................................   .   .  ..  .. .              . ...........",
"........ . ... .  .    .................. ....................................... ...   . .  . . ... .               .  ........",
"........ .  .... .. .. .................. . .. ....................................  . .   . . .. ..                . ..........",
"........ ........ . .  ..................  .  ....................................... .  . .. . ....              .  .. ........",
"......... ....... ...................... ..  . .................................... . . . .   .....                 . ..........",
"........ ................................  .    .......................................  . .........                 ...........",
"............................................    ................................... .. . . ...........            ............. ",
"............................................    ....   .............................. ... .......... . ..        ............ ..",
"............................................      .. . ............................ ... . . ......... .          .......... .. .",
"............................................      ..   ..............................  .... ............ .        ............ .",
"...........................................             .............................  .  ............            ............ .",
"..........................................               ......................... ....... ..............    .  .. .............",
"...........................................             .........................  . .. . ...........  ..      .................",
"..........................................               . .......................... . ................  .  . . ...............",
"....................................                .................................................... .   . .................",
"...................................                 .....................................................  .   .................",
".................................                   .....................................................   .. .................",
"................................ .                   .................................................... .. ...................",
"............................. . . .                 .....................................................   . ..................",
".............. ....... ......  . . .                .................................................... ..  . .................",
".............. ...... . .... .  .  .                ....................................................  . .  .................",
"............  .......  . .... ..  .                 .....................................................   . . ................",
"........ . .    .. .   ........ .  .                    .................................................... . .................",
"........ .      ..      .....    ..  . .                ....................................................  ..................",
"........  .     ..      ....  ... .. ..                 .................................................... . .................",
"........        ..     ....... .... . .                 ......... ..........................................    ................",
".. .....               .............. .                .......... ............................................  ................",
"...... .            .  ..................  .          ............ ...........................................  ................",
"...  .               . ................  ..     .  ..........................................................   ................",
". . .  .           .   .................. . . .  .. ..........................................................  ................",
". . .            .  .  .........................................................................                ................",
".... ..  .  .     .  .. ........................................................................                ................",
".. ..         . ..... ..........................................................................                ................",
". .   ...  .. . ................................................................................                ....   .........",
" . .     .   . ................................................................ ................                ......   . .... ",
"   . ..    .    ........................................................ . .. . ................                ...... .. ...  .",
"            . . ...........................................................  .  ................                ........  .  . .",
" .            . ........................................................ . .    ........... ....                ........    .   ",
"              . .......................... ... ....................... . .      ..... ..  ......                           .    ",
"            . . ............................ .. .......................         .... . ... .....                                ",
"                ............................. . ..................... . .         ..   . .......                                ",
"               ............................... ..................... .             . .  . ......                         .      ",
"               ............................  . ........................              ............... . . .                  .   ",
"             .  ............................. . ......................            . .  ............... .... .          .. .     ",
"            . . .........................  . .  ....................                . ........................       . . ..   . ",
"               .............................  . .....................           ..............................       .. .. .... ",
"                     .......................            ...........   .         ................................................",
"    .               ...................... .            .. ..... . ..         ..................................................",
"    . .             .. ..................                ...... ..         . . .................................................",
"      .              ................... .              .  .. ... . .        ...................................................",
". ..  .           .. ................                   . .  ... . .       .....................................................",
"..  .               .  ........... .                       ... ..    ..  .. ....................................................",
" ..   .              . ............                        . ..  ..     .  .................    ................................",
"   .                  . ........ . .                     .  .  .. .   .   . ................    ................................",
".                       .. ... .......  ........             .   ..  .  . ..............        ....................    ........",
"                        .. .    ......  ........            . ...          . ...........        .....................   ........",
"                        .     . .....   ........         . ....  . .   ..   ............        ....................    ........",
"                        . . ..  .....   ........          .  ....            . .........        ................... .   ........",
"                                ................        .......  .          ............        ..................      ........",
"                         .   . .................         ........ ..        ............        ..................      ........",
"                           . .. ................        .......  .         .............        ................       .........",
"                     . . .. . ..................        .........          .............        ................       .........",
"................    ..............................................                                                              ",
"................   .............................................. .                                                             ",
"..................................................................                                                              ",
"................................................................. ..                                                            ",
"...................................................................                                                             ",
".................................................................... .                                                          ",
".....................................................................                                                           ",
"........................................................................                                                 .      ",
"........................................................................                                        ................",
"........................................................................                                        ................",
"........................................................................                                        . ..............",
"........................................................................    .                                     ..............",
"................................................................................                                    ............",
"................................................................................                                    ............",
"................................................................................                          .   ..................",
"................................................................................                        .... ..................."
};
