/* XPM */
static char *metal_texture_128[] = {
/* columns rows colors chars-per-pixel */
"128 128 14 1 ",
"  c #292929",
". c #2A2A28",
"X c #2A2A29",
"o c #2B2B29",
"O c #29292A",
"+ c #2A2A2A",
"@ c #2B2A2A",
"# c #2B2B2A",
"$ c #2A2A2B",
"% c #2B2B2B",
"& c #2C2C2A",
"* c #2C2C2B",
"= c #2C2C2C",
"- c #2D2D2D",
/* pixels */
"OOOOOO=OOO*O=O=OOOO=O=OOO=O===OO.O==O=OO=OO==O.OOOOO=.OOOO=OOOOOO.OOO====OOO==O==OO=.OOOOOOOO=.=OO=OOOO=OO=OOO=O==OO=OO==OO=OOO=",
"OO=OO*=O=OOOO=O*=OOOOO=OOO=OOOOO=OOO=OOOO=O.OOOOO==OO=OOOO=OO=.OO=OOO=OOOOO=OOOOO=O==O.==OO=OOOOOOOOO=OO=O.=O=OOOOOOOOOOO=O.OOOO",
"O*OO*OOO=O=O=O=OO==O=O===O=OOOO=OO=OO=OO=OOO=OOOOOOO.==OO===OO=OOO=OO=OO=OOOO.O=OOO=OOOOO=O=O=O=OO==O====O=O==O=OO=.OOO=O=.=OO==",
"OO=OOO=OOOOOO==OOO*OO*OO*OO=*=OO=OOOOO=..O=OOOO.=OO=OO=OO=OOOO.O=OO==O==.OO=O=O.==OO=OO==OOOOOOO=O.O=OOOO=O=OO=.==OOOO=O=OO==OOO",
"OOO=OO=O=OO=OOO==OOO===OO*OOOOO==OO=O==OOOOO=OO==O=OO=OOOO=O.O==OOO==.=O=OO=OO=OO=OOO=O..OOOO=OO=O=OO.O=O===O==OO=OOO=OO=O.=.=O=",
"OO=O=OOOO=*O==*O=OO*=OOO=O===OOO=O=OOO.OO==OO=O=OOOO=OO==OO.OOOO=OO==OOOOOOO=OOO=OO==OO==O=OO.O=.OOOO=OOO=OOOO=OO..=OO.=OOOOOOOO",
"=O=OO*=OOOO=O==OO=OOOO=*=OOO=O=O.OO=OOOOOOOOOO.OOO=.OOO=OOOOOOO=OO==O=.O=.OOOOOOOOOOOO==OO=OOOOOOOO=OOO==O=O===.O.OOOO=OOOOOOO=.",
"=OOO=O=OO=OOOOOOOOOOOOOOOOO*O*OO=O=OO=O=OO=OO=OO.=OO==OO=OOOOOOOOO=O=OO=OOO.===O=OOO.=OO=O=OO==.OO=OO.=OOO==OO.=O==OOOO=O==OOOO.",
"=OOOO=OOOO=OO=O*O=OO*OO=OO=OO=OO=OO=OOOOOO.=OOOOO=OOO=OO=OOO.OOOOO=OO=OO=O.OOOO=.OOOOO=OO=O=O.O==OO=OO==O.O=OO=OOOOOOO=O=OO=OOOO",
"O=*=O=O==O*OOO=OOOO==OOOO=O=*OO==O=O==OO=OOOOO=OO==OOOOO=OOOO=O==.OOO=O==O===OOO==O=O==OO=OOO=OOOO=OOOOO===OO=O==O====.O.==OO==O",
"O==OOOO*OOOO==OO=O=OOO=O=OOO*OO==O=OOO=OOOO==OOOOO.OO=.==OO=OO.=OO.OOO=OO=OOOOO=.O.=O==O=OO=OOO=OO=.O==OO==.OOOOO==OOOO=O=O=O=.O",
"OO=OOO=OO=O=======OO*OOOOO*OOOO=OO=O.OOOOOOO=OO.=OOOOOOO=O.=OOO=OO=OO=OOOOOOOOO.=O.OOO.=OOO=OOOOO.==OO=OO=OO=O=OOOOOO=OOOOOOOOOO",
"O==O=OOO=O=O===O===OOOOOO==O==O=OO=OOOO==.OOO=O=OO.OO=O==.OO=OOOO.O==OO..==OOOO===.OOOOO==OOOOOOOO==.OO=O==OO=O=OOO==OOOO=O==OOO",
"OOO=OO=OO*O=OOOOOOOO*O=O=OOOOOO==O=.==OOO=OOO=OOO==OOOOOO.=OOOOO=O=OOOO=OOOO=OOOOO.O=OO=OOO=O.OOOOOOOO=OOOO=OO=O=.OOOOO=OOOO.OO=",
"=OOO==O===OO=OO=O=*O=OOOO=O=O=O=.==OO=OOO==OOO=O=O=OO=.OOOOOO=O==OO==OO==O=OOOOO=.=OO=OO=O=O=.OO=OOO=O====OOO==O=O===.OOOO=OOOO=",
"O*O=*OO=OOO=O*=O*O=OOO=O=O=O*=OO=OOOO=.=OO=O=OOOO=OOOOO=OO=OOOOOOOO=OO=O=OOOO.O=O...O==OO=OO=OO=O==OO=OOOO=O=O=.==OOOOOO.=OOOO.=",
"OOOO=O*OOO=O===OOO=OO=O=*OO*=OOO.O==OOOO=OO=OO=OO=OO=OO=OO=OOO.=OO==OO=OO.O.OOOO=OO=O=.OO=OOOOOO.O=OO=OOOOOOO===O=.OOOOOO=OO.O=O",
"=O==OO=OO=OOOO**O==O=OOO=OO=O=O*=OOOO=O=O==.OO.O==O=OOOO==OOOOOO=OO==OO==OO==OO=OOOO=OOOOOO===OOO=O==O======OOOO=OO=O=O=O.=OOOO=",
"O=OOO==O=O=OOO*O=OO=OOO=O=OO=OO=O=OO==OOO=OO=OOOO=.O=OO=O=O=OOO=OOOOO==O.OOOOO=OOOO==O=OO=OO.OOOO=O==O=OO=OO=O=O=O=O.O=O==OO=OO=",
"OO=OOO=OO==OO==OO=OO=OOOOOO=O=OO=O==.O=OOO=O=OOOO.=OO=OOO.O=OOOO=.=OOOOO=OO=O=OO=O=OOO.=OO==..O=OOO=OO.=O.=O.=O..=OO=OOOOOO=OOOO",
"OO=OO=OOOO=OOO=O=O=OO=OOO=O==OO=O=OOOO=O=OOOO=.O=OOOO=.=OOOO=O.O=O.==O=OOO=OOOOOO==O==..O=OOOO.==OO=O=OOOO=OO=O=OO=.O==OOOO=O.O=",
"=OOOO==OO*=O=OOOO=O=O==O=OOOO==O=OO===O==O=OOO=OO=O===OOOOOOOOO=OOOO.OOOOOOOO.=OOOOOOOOOOO=O=OO=O=OOOO===O==OOOOOOO==OOOO=OOO=OO",
"O**OO=*OO=OOO=OOO=OOO=OOO=O=*OOOOOOOO=.OOOOO=O.O==O==OOO=OOOOOOO=.O======OOOO=O==.O=OOO=OO==OOOO=O=OO==O=OOOO=====OOO=O==O=.OOOO",
"=OO*O===OOO=OO===OO**OO=O*O=O=O==O=.=O=OO==.O==O==OOOO=O.OOO=OO=OOO=OOOOOOOO.O==OOO=OOOO=OO=O=OOOO=OO=.=OO=OOO=OOO=OOOOO=OO=OOO=",
"OOO=O==OO=O=OOOOOO=OO==OOOO*=OOO=OOOOOOOO.=O.=OOOOOO=O=OOOOOO=OO=O=OOO=OOOO=O=OOO.OOO=..O=O==OO==O=OO=.==O=OO=O==O=O.==O=.OOOOOO",
"=OO*OOO=OO=OO==O==O=*OOOO==O===OOO=OO==OO=OOOO=OO=O=O==O=O=.O..=OOOO.===OOO.OOO===OOOO..OOOOOOO=.=OO=OOOOOOOOOO=O==OOOO.=O===.O=",
"O=OOO=O=O=*OOO*OO=OOO=OOOOO=O=OOO=O.O.OO=OO=OOO=OOOO=O.OOO=OOO==O.O=OOO.=OOO.OO=OO=O=.OOOOO=O=OO==O==O=O=OOOO=.OO==OOOO=OO=OOOO=",
"OO===O=OO=OO=OO=O===OO=*=O=O=*O=O=O=O=O=O=OOO=O==.O=O=O.OOOOOOOOO==OO=O=OO=OO=OOO=OOO.=OOO=OOO==OOO=O=O=O=O==OOOOO=OO=OOOOOOOOOO",
"=O==O*=O=OO=O*=O*=OO=OOO=OO=O=OO=OOOOOOOOOO==OO==.=OOOOO.OO=OO=O=O=O=OO=OOOO=OOO=OOO=O=O=O=O=OOOOOO=O==OO=OOO==O=O=OO=O==OOO=O=O",
"OOOO=OO=OO=OOOOOO==OO=O=OO*O=OO=O.O==O==O=O.OO=OO=O=O==O=OOOOOOO=OO======O=OOO=..=O==OOOOOO=OOO===OO=O===O=.OOOO=.=OO=OOOO=OOO.=",
"OOO=O==OO==O=O=O=OO=OOO=OO==O=O==.=OOOOOOOOO=O=O=O=OO=OOOOOOO=O=O=OOO=O=OOOOOO==OOOOO=.O=O=O=O=O.OO==O.O=O=OOOO==OOOOOOOOO=.OOO=",
"OO=OOO==O=O=O=*OOOOO=OOO=OOOO=OOOOOO=O.===O=OO.O=OO=OOOO=OOOO..=OO=OO=OO=.=O=OOOO==OOOOOOOO=.OOO=O==OO=O=OOO.=O.=OO=.=OO=OOOOO=O",
"OO=OO===O==OOO=OO=.OOOOO=.OOO=.=OOOOO=OO=OOO=OO=O=.O=OOO=OOOOOOOOO$$$$$.$O.==O$.$O.=$$.OOOO=OOO$OOO=O=OO.O=OOOOOOOO=O$=$OOOOOO=O",
"OOO==OOOOO*OO===O.=.=OO=O=O=O=OOO=O=OOO==OO=O==O=OO=O=OOO=OOOOO=O.$$$$=O$$OO$$O$$$$O$O$$$=OO$=O$=O=O=O.==OOO.===O=.=$O.O$OO.OO=O",
"OOO=.O=O==OOO=OOO=OOOO=OOOO==OOOOOO=O=O=O=.O=OOOOO=OO=.OOO=.O=OO=O$$O$=$$$$$OO$$=O$$$OO$$$O=$=$=OO==O==.OOOOO=OOO=OOOOOOO$==.=OO",
"=OOO.=O=O==.OOO=O=O=OO=O==OOOO====O..==O=OOO.O=O==O==OOOO=OOO.=O$$O$O$$$$$$$$$O$=$O=$$$OOO.=$$O$O=.OO=OO=OO=OOOO.OO==O=OOOO=.O=O",
"OOOO=OO==OOO==OOO=.OO.O=OOO=O=OOOO=.O=.OO=O=O=O=OO===OOO=O=O.OO=.O$$$.OO$$$O$$O$O$$$$$.$$$OO$=.$O=.=O=OO=OOOOO=OOO=OOO=.OOOO.OOO",
"=OO=OOO=OO=O.OO==OOO==OOO=O.O.OO=OOO=O=O=OOOOOOOOOOOOO===OOOOOO=OOO$$O=$OO$$OOO$OO.$$$OO$$$$OOO$OOOO=O=OOO=.OOOOO=OO=OOOO=OOOOOO",
"OO=OOO=OOO=.OOO=O=OOOOOOOOO=OOOOOO==O==O.O=OOOO=OO.==O.OO=.O=O=OOOO$$$$O$O$.OOO$O=O=$$$OO$.$$$$$OOO=OO=.O=OOOOO=OOO..O==OOOO=O=O",
"OOOO=.OO==OO==OO=O=O=O=OO==O=O=OO=OOOOOO=OO=O=O.=OOO=O==OOO=OOO=$O.$O$$.=$$=$.$OO$$$O=OO$O$$.$$$O=OO===OOO=O.=O==.=OOOOOOOO=OOO$",
"=O=O=O=OO==O==.O=OOO=.OO.=O=O.O.O==O=O=OOO=OOOO=OOO==O=O.OO=O=O=OOO$O$$O$O=$$OO$$$$$O$O$O=.$OO=O=O=OO==.O=OOOOOO$O.=OO=OOOOOO$OO",
"OO.OOOOOO.OOOOOOO=OOOOOOOOOOO=O=OOOOOOOOO=OO=.OO=O=O=OOOO=OOOOOOOO.$$$$$=$OOO$$O$O.=$$O$$$$OO$$$.O=OOO.=OO=O.=OOOOOO=OO.$$OO.OOO",
"=.OOOO.OOOOOOOO=OO=OO=.OOOO=OO=OO=O=O==OO=OO.=O=OOOOO.O==.OO=O=.$OOO$$OO$$=O$$.O$==O.$$O$$=.O$$$OOO=O=O==OOOOOOO=OOOOOO=O$O.OO=.",
"OO=OOO=O=O=OO=OO=O.OOOOOOOO=O=OOO.=O.==OOOO=OOOOO=O.O=OOOO.O=OOO$OO$.$$$O$O.O$$$$$O$$=$OOOO$$OO$=OOOO.=O.OO=O.=O$=O=OOO=$OOOOOOO",
"OO*OOO=O=O=OO.O=OO=OOOO==OOOOOOOOOO=O=OO=OO.OOOOOO===OOOOOOO==.=$$O$O=$O$$$OO$$$$$O=$$OOO$$O$$$$OO..=O=OO=O=O=O=OOOO=.OOO==OO==O",
"OO=OOOO=OO.O===O=OOOO=OOO=O==OO=O==O.==OOO==O=.==OOOO=O==OOOO=OOO$$O$$O$O$=O$$O$$=$$O=$OO$=$$O$OO==OO=.==O=OOOOO=.O$OOOOOO.OOO.=",
"OOOO.O=OOOO=OOOO=OOO=OOOO.=O=.OO=OO==O=OOOOOOOOOO=O.O=O=O==OOOOO$$O$.$$$$$=$$$$O$=$O.$OO$OO$$.O===O===O=OO=O=O==O==OO$=O$OO==OO$",
"=O*O=OO=O=OO==O=OO=O.==OO==OOO=OO.=OOO=OO=O=O=OOO=O=OO.=OOOOOO==.=O$$$$OO$.OO$$$O.$$O$O$$O=$$$O$OO=OOO=OO==O.==O$O=OOOOO=OOOOOO=",
"OO=OOO=OO=OOO=OO=OOOOOO==OO.O==OO=O=.=OOOO=OO=.OO=O=OOO==OO=OOOO$$O$$$O$$.$.O$$$$$$$O$O$=$$=.O==$$$=O=$$O==OO==$$OO=OO$O=.OOOO=O",
"O==OO==O=OO==O=OOOO=O=.==OO==OOOOO=OOOO=O=.O=O=O=OO==.OOO.=OOOO=O$O$O$$O$O$O$$$$O$$O$OO=.$$$=$O$$$.$OO$$$O$$$=..=OO$=OO==OOO$.OO",
"OOOOO=O=OO=OOOOO==.OO=OOOO=OO.OO==O====OOO=OO=OOOOOOOOO=O=O==O===O$$OO$O$$O$O$=$===.$.O$=$=$$O$O$O.O$$=.$==.O$$==O=O=OO=$O=$OO$O",
"==O=OO=O=OOOO==.OOOOOO=O.=OOO=O=OO=OOO=O=OOOOO=O=O=OO.=OO=OOOO.O$O.$$O$OO$$O=O=$OO$$$$=OO.$=$=O$$$=O=O$$O$$$$OO=O.==O=$OO=O$O$O=",
"=O==OO=O=OOOO=O=O==O=OOO.O=OOOOOO.=O==O=OO===OO=OOO==O=OO=.O=O=O$OO$O$.$$$$$O$=$$=O$O$$$$=$=O$O$$=$=$$$$==$.O=O=$O=$$=O$O==$=O$.",
"O.=O=O=.OO=.O==O=OOOO=.==OO==.====O=OOO.O=.OOO=O==OOOOOO=OOOOOOO$O.=O$$$OO=O$$$.$O$$$$$O$O$=$O$$$.=$$$=OO==OO$O$O=O$=O=$$=O.O==O",
"OOOO=OOOOOOOO**OOOOO.=OO=O=OOO=OOO=OO=OOOOOOO=O=OOOOO.O=OOOOOOO=O$$=$O$OO$=.$$$$$$$.O$$==$=.$O$$O===$=$$$$OOO=O$O=O$$O=$$O$==OOO",
".===O=O=O.=OO=OOO==OOOO=O=OO=OO=O=O=OOO=O.=O=O=OO===O=OO==OO=OOOO$O$O$$OO$$OO$=OO$$$$$O=$$O==.O$=O$=$$==$O=$O$=$=O=.=O.O$$O$$$=O",
"OO=OO==OOO=OOOO=O.OO==.O=O=O=OOO==OOO=.OOO=OO=.==OO=O=OOOOO=O.OOO$$OO$$$O$$$O$$$$O$$$$$.=O$$O$$$$O$O$$=OO=$$O=.OO$$$=$$$OOOOO$=O",
"OO=OO===OOOOOO=O==OOOOOO=O=OO==OOO.==OOO=O=OOOOO=.OOOO=.=OO==OOOO$$$$O.$$OO$.$=O$O$$$=$$O$$==.$.==$$=$=OO==OO$=$=.==O$O=O$==O=.=",
"O=OOOO=O=O===OO=OOOO=.OO==O==OOOO=OOO=OOO.=OO==OOO=OO=OOOOOOOOOOO=$$.O$O.O$$.$$$$$O$O=$OO=O$.OO=$===$$$$=O=$$$=$$$=$$OO==O=OOOO=",
"OOO=O.==OOOO==O=O=O=O=O==O=OO.=OOOO=OO==O=OOO.=O==OOO=O.O=OOOOOO.OO=OOOOOOO$O$=$O=$.$OO$OO$$$$O$$O.OO.=OOOOO==$O.$.=O$OO.O$$=O=O",
"OOOO=O=OO=OOO=**==O==OOO..O=OOO==OOO=OOOOO.OO=OO.OOOO=O==OOO=O..OOO=$$OOOOO$O$=O$$$=$O=O$$$$=O$$=OO==O=O=$O.O.$$$O=$O=O=$=$=O$=O",
"O*=O.==O====O.OO==OOOOOOOO.==OOOO=O==O=OO==O=O=O=O=OOO.=OO.OOO=OO$$O$O$OOOO$$O$O.$O$O$O$$$$$O.O=$$$$O==$OO=OO=OOO==O$OOO=OOOO$$$",
"OOOOO=OO===O=O==OO=.O=O===OO=O===O=..O=OOOO=OO==OOO==OOO=OO=OO=O$$O$OO$$$OO$O$$O$$$$$$$.O$$$O=O=$O$$.$O$.O=OO=$O$OOOOO=O.O.O=O=O",
"O==OO*O=OO=O=OOOO==.=OOOOOO=OOOOO=O=O=OOO==OOO=O===OO=O=.O=OOOOO$$$O.$$O$OO.=$$$O=OO$O$O$$.=O$$$=$O=O$O==O$OO$$$O.=$=OOOO$O=.O=O",
"$$$$$$=$$=$$$OO$$$$O$=O$.$$$$$$$$$$$O$$$$.$$.$==$==$$$$$$$.$$O.$$$$OO$OO.OO$O=OO$$O$O$.O$=$$$$=$$$$$.$$$$$=$$$OO$$$$$$.$$O$$.$$O",
"=$=$$==$$$$$$$$$=$$$.$O$.=$$$$$O$$$$$=OO$$$$$$$$$$$$$$$$=O$=$$O$$O.$OOO=$OOO$$$=$.O$$O$$$$$=$$$$=$$OO$$$$$$$$$==$==$O$OOO$$$O$$O",
"$$$=$==$.$$$$$$$$$$$$$O$$$$$$$$$$$$$=$$$OO$O$$$$$$$$$$$=$$$$$O$$$$=O$.O$OO$=$O$=$==OOO$O$$$=$$$$$.$$$$$=$$$$.=$$$$$.O$$OO$$O$$$.",
"$.$$$$$$O$$=$$$.$$O.$OOO$.O=$$.$$$$$O$$$$O$$O$$$$$$$$$$$$$$$$O$$$$$$OO$$O$O$$OO.$$OO$$O$$O$$$$$$=$$$OO$$$.=$$$$$$==$O$=.$O$$OO.=",
"$$$$$$$$$$$$$$$$$$$$$$OOO$O$$=O$$$$$$$$.$$$$O$$$.$$$$$$$$O$$$$O$=.O$.O$OOO.=O$$O$$$$.$$O$$O$$$$$=$$OO$$$$$$$O$.=O==.O$$$$O$=$$O$",
"O$$$$$$.$$$$O$$$$$O$$$O$$O$$$$$$=$$$O$$$$$$$.$$$.$$$$$$$O$$=$$$$$OOOOO$O$O$$$$$$$$.=$$$O.$$$.$O=$$$$$$$$$=$$$$$$$O=$$$$$$$.$$O$$",
"O$$$=$$$O$$$$$$$$=O$$.=$$.$$$=$=$$$$.$$$$$O$$$$$$$$$$$$O$O$$OOO$$$$$$O=$$O$$$OO$$OOOO$$$$$=O$$$$$$$O.$=.$$$==$O$$$$$$$$$$$O$$O.O",
"O.$$$$$$$$O.O$O$=$O$$OOO$$$$$$O$$$$$$$$$$$$$$$$=$$$$$$$O$.$$$$O$$$O==O=$OOO$$$$.$$$$$$$$=$$$$$$O=$$OO==O$$O$$$O$$$=OO$$O$OOO=OO=",
"OOO$O$$$OO$.O$$OO$$$.O$$$O==$$O$$$$$$.$$$$$$.$O$$$=$.$$$$$O$OO.$$$O$$O$$O$O$$O$$O$$$$$$O$$$$$$$.$$$OOO$$$$$$$$O==$=OO$OO$$$O$$$$",
".$$$O$$$$OO$O$$OO.O$$O.$O$$O$$$$$$$$$$$$$$$$$O$$$$$$$O$$$$$$$$.$$O$$$OO=$O$$$$$.$.$$O$O$$$$$$=$$$$$$$O$O$$=.$$O$$$$$$$$O=$O$$OOO",
"O$OO$$=OO$OO$$O.$$$OO$$O.OO$.$O$$$=$$$.$$O$$O$O$$.$$$O.$$$$$$.O$$O.OO$$O.$$O$O$O$$$O$$$.O$$$O$$$$.$$$OOO$$O$O$.$.$O=O$$$.OO..=$O",
"OOO$$O$OO$$$O$$$$OO.OOO$$O$OO$$$=$$$OO$.$O$$$$$$$$$$$$$OO$.OO$$$$O.$$$$OOO$$$$O$$$$$$OO=$$$$O$O$$$O$$$O$.OO$$O$OO$$$$O$OO.OOOO$O",
"O.$O.O$$$$$OO$$O$$$OOO$$$.O$$.O$$$$$$.$$O$OO$$$$$O$O$$$O$OO$$$O$$O$$$O=O$.OO$O$O$==O$$O$=$O$O$$=$O$$$.$$OOOO$$$$$=O$.$OOOOOOO$$.",
".OO$O$$$$$O.OO$$OOOOOO$O$OO$O$$$$$$$$$$OO$$..O$O$$$$$O$.O$$OO$O$$.OO$O$$$$$$$.$$$$$$$O$$.$O=$=$$$$.$$OOOO$$$$$$O$$$$$$$.OO$=O$$O",
"OOO$O$$$$$OO$$$O$OOO.O$$$$OO$$$$$$$$$$O$O$O$O$O$$$$$$OOOOOO$OO.O$O$$$$$$$OO$$O$=$$.$$$$O$O$==$$$$$.OO$OO$$$$$$$$.$$$O$$$OOO$.=$O",
"OO$$$O.$$O$.$OO.=$$OO$O.O$O$OO$$$$$$$$O.$O$O$O.$$$$$$$$O$$OO.$$$$OOOO.=$O$$$$$$O$O$$$OO$$=O.$$.$O$$OO$=.$O$.O$$$$$=O$OOOOOOOO=OO",
"$OO$$O$$O$OO$OO$$$OO$$OOOOOOO$O$$$$$$O$O$OO$OO$O.O$$$$$$O$O$OO$$O.O$O$=$.O$$O$$=O$O$OO$$$$OO$OO$O.$$.$$O.O=OOO$$$$$OOO$$.OO$O$OO",
"$O$OO$$O$$$$$$$$$$$.$O$.$$O$$O$$=$$$$O$.O$$$$$O$$$$$$$$$$.OOOOOO$O.$$$..$$$$$O$$$$.=$$$O$O$$=$$$$$$O$$$$O$$OO.$$$$$$$$O$.OO$=O$$",
"$OO$.O$O$$$$$$.$$$O$O$OOO$$$$$$=$$$$$O$O$$$O.$$$$$$$$$$O$O$$OOO$OO.O$O$$$$O=OO=$$$$$$O.O$$$O$$=$=$$OO$$O$OO$$O$$$=$$$$$$OO$$$OOO",
"$$OO$O$OO$.$$$OO$$OOOO$OO$.$O.$$$$$$$O$OOO$.$$O$$O$$$$$O$.O=$.$$OOOO$O=$$$$$$O.OO$O$O$$$O$.$.$$O$$$OO$=OO$$$$O.$$$OO$.$$OOO$.$$O",
"$$O$OOO$$$O$$$$O$.OOOOO$$O$$.OO$$$$$$$O$$OO$O$O$$.$$$$$OOO$$OOOOOO.$$$$.=$OOO$$$$$$OO$$.$O$$O$$$O$$O.$OOO$$OO$$$$$.O$OOOOOO$$$OO",
"$O$OO$$$$$$$$$O$OO$O.O$.O$$$$O$$$$$$$$$$O.$$$OO$O$$OO$O.$O.$$O$OOOOOO$$O.$O$$O.$$=$.O$$OO$$O$$O$O$=$$OO$$O$$OOO$$$$$$$O=$$$$$OO$",
"$$$.$$$..O$.$$$$$$$OOO$$O$$$$$O$$.$$$.OO$O$$.$$O$$O$$$$$$$OO$$.$$OO$$$$$O$$OO$O$$$$$OOOOOO.$$$O$$O$$O$$O$O.$$$$$==$$O$O$$$O$.O$$",
"O$$$$$$$$$$.$$$$=$$OO$$$$$$.OOO$$$$$$$$.$$$O$$O$O$$$$$O$$$$$$$$O$OOO.O$O$$O$$O$$=O$$$$$$OO$$$O$$$$$O$$=$$$$$$=O$.OOOO$O$.$=$$O=$",
"$.$O$$$$O$$O$$$$$$$O$$$$O$$OOOO$$$$$$O$O.O$OOOO$O$OO$$$$$$O$$OO$$OOOO$$$.$$$$O$O$$O$$OOOOO$$$.O$$$$$.O$$$$$$O$O$$$$OO$$O$$O=OOO$",
"O$$$$O$$OOO$$$$$$$.OO$$$$$$$$$O.$$$$O$$$OO$OO$.$.$$$$$$$$$$O$O$O$$O$$O$O$O$O$OOOO$OOOOO$$$O$$$OO$.$$O$O$O$$$$$$$$$$OOO$$$O.==OO$",
"$$=$$$$.$$$$$$$$$O$O$$$$$$$.O$$$$.$$$.OOOOOOO$O$$$$$$$$.$O.$O$$.$$O==OO$$$OO.$$$$O$$$O.$$$$$O$O$$O$$.$$OO$$$.$=$$O$O.OO$OOO$$$$$",
"$$$$$$$$$$$.$$$$$$$OO$O$$$$$OOO$OO$$$OOOOOO$OOO$$$$$$$$$$O$O$O$$$O.$.$$O$O$$$OOOO$O.OOO$$O$$$O$$$$$$O$O$.$$O$$$$$$$O$OOO$OO$OO$O",
"$$$$$$$$$$$$$$$$$$O$$$$$=$$$$.OO$$$$$$O..OOO$$.$O$$$$O$$$O$OOO$$$O$$O$$O$O$O$$O$$$.OOO.=$.$$$.$.O$$$O$$O$$$$O=O$$$$$$O.$$.$$$OOO",
"$$O$$$$$OO$O$$$$$$$.$$$$O$$O$$$$$O$$$$O$OO$O$O$O$$$O$$$O$.OO$O$$$O.$$$$$O$O$O$$$$O$$O$$$$$$$$$O$OO$OOO$$O$$$$O$$$$$.OOOOO$$$.$$O",
"$=$$$$$$$$$$$$$$O$.$$$$O$$$$$$$$$O$$$$$O$OO$$OO$$$$$O$$$$O$.O$$$$OO$$$$$=O$$=.$$=$$OO$=$$$$$$$$O$O$$.$OO$$$$O$O=$.$$$$O.$$=$O$$O",
"$$=$$$$.$$$.$=.$$$$$=$$O$O$.$$$$$$=$$$$$$O.$$$O$$$.$$$$$$OOO$$$$$O=$O$O$.$$$$$$=$$$$$$$$=O$$O$O$$$=O$O$$.=$$O$O$$$$O$$$O$$$$=$$O",
"$$=.O$O$.$$O$=$$=$O$$$$$$.OO$$.$$$$$.$OO$O$$$$O$$O$O$$O$$$O$OO$$$.$$$$$$O$$$$$$O$.O$$$$=$$.$$OO$.O$$O$=.O$$O$$O$$$O$$$OO$OO$$O$O",
".$=$=$$$$O$$$=$.$$$OO$$$$$$O$$$$$O$$OO$$.OOOO$$$$$O$$$$$=O$.O$.$$$$$$.$O$$$$$$$.$=$$.O$$$=$$$OO$$$==$$$$$O$.$$$$O$O$$$O$$OO==$$O",
"O$$$$$$$O$$$$$O$$$$$$$O$$$OO$O$$$$$$$$$O$$O$$$$$$$$.$$$.$O$$$$$OOO$$O$$$O$$$O$$$$$$$$O$==$$=$$.O$$O$O$O$O$$$$$$.$$$$$$OO$$$$$$$$",
"$$$$$=$$$O$$$O$$$$$OO$$$$OO$O$$$.$$$$$O$$$$$O$.O$$$$$$$O$OOO$OO$$$$$OO$$$=$$$O$$$O$$O$O$$O$$$$$$$O$OO$$$$O$$O=$$$$$$$$$$.O=$$$$.",
"$$$$$$$$$O$$$$$$$$$O$$$.$$$.$$$.$O$$$$O$$$$$O$$$$$$$$$$$$$$$$$O$$O$$$O$=$$.OOO$$$O$$$$$$$$$$$$O$=$$$$$$O$$$$.$=$$$$$$$OO$$$$O$O=",
"$$O$$$$$.$O$=$$$$$O.OO$$=$O$$$$O$$$$$$$O$.$$$.O$$$.O$$$$$O$..O$$.O$=$$$$$$O$.$$$$$$$$$$$$$$$$OO$$$=O$$$$.$$$$==O$=.$$O....$$$$OO",
"$.$$$.=$$O$O$$$$.$$O$O$O$$O$$$$O$$$.$$$$$$$OOO$O$=$O$$$$$$$OOO$OO.$$.$$$$O$$$O$$$$$$$$.$$$$==O$$.$$$$.$$$$$$O=$$$$$$O$$=$.=$$$=$",
"$$$$O$=$$$$$O$==$$$$$OO$O$$O$$O$$$$$$$$$$$$$$$O$$$$$$$.$$$$$$$O$$OO$$$$$$$$$$$O$$$$O$$.$.$$$$.$$$$O==$=$$$O$OO$$$$$$$$$$$$$$$$$$",
"$=$O$$$$$$$O$$OO$$$.O$$$$$O$$O$$$$$$$$$$$$$$$OO$$$O$$$O$OOO$$OO$$O$O$O$$O$$$.$$O.O.$$$$=O$$$.O$$$$O$$$$$O$$$O$$$.$$O$$$O=$O$$.$$",
"OO$$$=$O.$$OO$.OO$$OOO.$$OO$$.O$$.$OO$$O$$$$$$OO$$OO$$$$$.OO$$O$OO$$O$$$O$$$$OOO$$O$$$OO$$$$O$$$$$$O.$$=$O$$$$$O$$$O$$$.$O$=$$$=",
"$$$O.$$$.$$$$O$OO$$O$$O$$OOO$$O$$$$O$$$$$$$O$$O$$$$$$$$$$OOO$$O$$O$$O.$$O$$$OOOO$$$$$OO$$O$$$$$$$$$OO$O=$.$$$$$.O$$$=O$$$$$$$$$$",
"$$$$.==$$$$$$$O.O$$OO$$O.$$$OO$$$$O$$O.$$$$$$$.$=$O$$$.$$OO$OO.$$OO$$$$$$$$OO.O$$OO$$$$$$.=$$O$$$$$O$$$$$$=$$$$$$$$$=$O$$$$$.$$$",
".$$$$==$O$$$$O$$$$$O.$O$$$$$$$O$$O$$$$O.$$$.$$$$=$O$$.$$$.$O$OO$$O$$=O$$$O$OO.O$$OO$$.O$$$$=$O$$$.$.O=$=$$$$$$=$$$$$O$OO$$$$O$$O",
"$$$=$$$$$O$$$$$O$$$O$$$$$$O$=$.$$$$OOO$$$$$$.$$$=$$$$$$O$OOO$$O$$$$$$$$=$O$.OOOO$$OO$$O$$$$=$$O$$$$$O$$$$$$$$$$$$$$.O$$O$$O$$$$$",
"$$$$$$$$O$$$$.$$$$$.$O$OO$O$=$$O$.$$O$$$.$$$$$O$$$$O$$$$O.O$OOOO.O$.$$$=$$O$OOO$$$O$$OO$O$O$$$$$$$OOO$$=$$$$$$OO$$=O.$O$$$$$$OO$",
"$.O$$$$$$$$$$$$O$$OO$$OO$.$$$$$$$$$$O$$.$$$$$$$$.$$$$$O$$O$O$.O$$O$O$OO$$$$$OOO.$$.$$$OO$$$$O.O$$$$$$$$$$$=$.$$$O$$$$$$.$.$$$.$$",
"$$$O$$$$.$$$$O$O$$O$$O$$O$$$$=$$$$$$.O$.O$O$O$$$$O$$$$$$$$$$$O$$O$O$$$.=$O$O$OOOOOO$$OO$$$$OOO$$$..$$$$$$=$$$$O$$$$$$$$.$$O$$O$$",
"$$$$$$$$$$$$$.$$=$.$$.=$$$$$$$$$=$$$OO$O$$$$$$$$=$$$$O$$O$$=$O$$=$$$O$O$$OO.O$OO.$.O$OO$$$$$$$O$$$$$.==$$$$==$$$$$$$O$.$$$OO$.OO",
".O$$$=$$O$O$$O$O$$O$$$O$.$$$$$.$$O.$$O$$$$$O.$$$$$$O$$O$$OO$OOO$=OO$$$.=$O$$OO$$O=$O$$.O$$$$$.OOOO$$O$$$$$$$$$O$$$$O$$OO$$.$=$$=",
"O$.$$$$$$OO$$$$.$O$$$$$$O$=$$$$$$O$$O$$$O$$$$O$==$$$.$$O$OOO.$$$..$O$=$$$O$O.O.$OO$O$OOO.O$$$$OO$$O$O$$O$==$$..==$$$$$OOO$O$OO$O",
"OO$$O$$$O$$$$$$$OOO$$$$$$O$$$=$$$$$$OO$$$$$O$OO$$$$.$$$$$.$O.$O$OO$O$OO$$$O.OOO$.O$$OOO$$OO$$$$OO.$O$.$$=$$$$OOO$.$$$O.O$O$OO$$O",
"O$$$$$=OO$$O$$$$$$$$$$$O$$.$$$$$$$$O$$OO$$$$$$$O=$O$$O.$O$$OOOO$$O$O$$$O$=$$OOOO$O$$OO.O$OO=O.O$O$O$$$O$$$$$$.$$$OO$.$$O$O.O$$$.",
"OO$$$O$$$$$$$$$$$$$$$$.$O$$$$$$$$$$$.$$O$$$O.$$$$$$$$$OO$$$O.$$OOO$O$$$O$=O$$O$O$OOOOOOO$$.$$O$$$O$$$$$=$$$$O$$$$$$$O$$$OO$OOOO$",
"O.$$$..$$$$.$$$$$$$$$$$$$$$$$$$$$O$$$$.$$.OOO$O$$$$$$=$$$$$$$$OO$$$$O$=O$O$$O$O$$O$$$O.$O$OOO$O=$O$$O$$$.$$.$$$$$$O$O$O$=$$$O$$O",
"OOO$$$$$$$$$$$$$$$O$O$$$$.O$$$$$$$$$.=$$$$OOOO.$$$$$$$$$O$O.O$O$$$$$$OO$$$$$OOO$=.O$OOOO$O$$$$O$.O.$OOO$$$$=$.OOO$$$$$$$$$$=$$$.",
"$O.$$O$$$$$O$$$$$$O$$$$$O$O$$$$.$$$O$$O$$$$$$O$O$O=$$O.$$$$$.$OOOOOO$.$$$$.$$O$O$O$$O$.OOO$$$$O$OO$O$$$O$$$$$.$$$O$$.$OO$OO$O$$O",
"OO$$$O$$$O$$$$O$=$.O$$$$O$$O$$OO$.$$.$OO$$$O.O$$$$=$$OO$$O$$OO$$.OOOOOOOOOO$OO.OOO$$O$OO$$OO.OOOOO$$O$=.O$$$$O$$$OOOOOO$O$$$.$O$",
"$OO$O.$$O$.$.$$$$$$O$OOO$O$$$$O$$$$OO$$O.$$O$OOO.OO$OO$$OO$$OOO$OO.OO$$$O$O$$$O$$$.O$$OOO$O$$O$OOOOO$$O$O$=O.O$$$O.O$O$$$O.$$$OO",
"$.O$$O$$$$$$$$O$$$$O$O$.O.$$$$$$$$OOO$$OOO$$OOOO$$$$$$$$OO=$$OO$OOO$.$$$$$$O$.OOO=$$$$OO$OO$O$$$$OOO$$$$$$=$$O$O$$O$$$O$OO.$$$O$",
"$$OOO$$O$$$$$$$$$$$O$$O$O$$O$O$$$$$O$$$$$$$$$O$OOO.$$$$$$O$$O$OOOOO$$$$O$$$$$$O$$$O$OO$O.$O$O$=.$$O$O$$O$$$$O.$$$$.$$$$$$$O$$OO$",
"$$O$O$$$$$.$.$$.$$$.$O.$$O$$O$.$$$$O.OOO$OO$$O$$$O$$$$O$$.O$OO.OO$.O$$$OOOO$$$OO$O$$=O$.$$O$.O$$.O$OO$$$.O$$$O$O$OOO$O$$$O$$O$O$",
"$O$$$$.O$$$$$$$O$O$OO$OO$$$$$$O$OO$$O$.$$O$$OOOOO.$$$$.$$O$OO$OOOOOOO$$OO$$.$$O$$O$$O$O.$O$O.$$$OOO$OO.$$$$$O$O$$$OO$$.$$$O$O$OO"
};
