/* XPM */
static char *rust_texture_128[] = {
/* columns rows colors chars-per-pixel */
"128 128 36 1 ",
"  c #5E3E2F",
". c #65422E",
"X c #6C462E",
"o c #6E482F",
"O c #70472E",
"+ c #744A2F",
"@ c #7A4D2F",
"# c #7E502F",
"$ c #664431",
"% c #6B4631",
"& c #6E4932",
"* c #6E4D39",
"= c #704730",
"- c #744C32",
"; c #7A4E31",
": c #734E39",
"> c #765035",
", c #7C5134",
"< c #765139",
"1 c #7C5439",
"2 c #7F583D",
"3 c #7A5640",
"4 c #7F5841",
"5 c #804F32",
"6 c #825434",
"7 c #885633",
"8 c #855836",
"9 c #895A36",
"0 c #825639",
"q c #88563B",
"w c #83593B",
"e c #895C3B",
"r c #8D603D",
"t c #845C42",
"y c #885E41",
"u c #8B6143",
/* pixels */
"665;;0;;>>11,8,,#,#,,@,@-@@@,<O&=5557066;+-->o>,,>o>o**o11,,8962,>&&*-,1*-;--<,10;@;8,-;;5;5;XX-1-=-;;;;;->-12,,>>>#,;-=;;>,76,8",
",;6,;:-->>181,,,#6567>7>;;>;-,1--555676;;@;+oo#,>>>>oo>*->,,1881>,>>-:1,-,66--,;;;=;;6--;;;;@-X;;;-;;;-;>-,<,1>,,@@#;,--;--=,78,",
",,6,>::&&<-@,#1,@5567,7,@O==X<,,5;;;56,;,>,@o+#22#>>o>>>o>6,,68>>##--;---688;--;;0;;<,,-665;-;-=--;6;--=-#,>,,6,#@@+@;,666666,0,",
"1,6,,&*%&&-->>6,##65#566&%%%&-,,55;55,>68,,@#,#,#2,,o>o>>>88,,,>>>@+-----;5606555;;10;,;;7;-=o&;:;,1;;O--++->698#,#+@@6686686:,<",
",78,+&.Xo+<>6@;->,665,65-<&%%:>6;<0;666>,@;,+,,2##>#>oo>>>211,,>>@;-=;,,;;55555;#>,,>>>,,;;-=-O=X&->;;=----+=;,6>56@@;6666611,1<",
"68@;;,=XO>,755;;,,,686671>%**&;;;;;;>,6;;@@@,>,229##oo>>>,2>>,>>1>-::,,6,6;;;55;,,,6>>>>-66;--@@O+O--;-;=-=-;;;;55565@;6,,w1>,,>",
"86>;+;-X>76,;;66,68886,><>$*2<,1,-+o@,@;@@;,,,,>,,>o++>>,21*>>>>,>-,--,,,6;;=-0566,,+&&-;,6;-;;5;@=+;;,,;&===>;-+655;;667,1,,-,,",
",,=O-6@+,,,--;566,186-<<*-<<<1,-,-OX+,,;;=@;66,1>>oo@>>#,2211&>,#,,w,,,,6;7,;;177,6#@>o--;-;,;;66;OO68886,-&-;:-+,@,,->71,,1,:11",
"<:$X;5;6686,,#,5-;181*&>,11u>6##--X+>;;-#&o+,,,,>oo>,####,r,2@->,211-+@;-5766,,;,;;5-:<1,06,6@6>@-@+,565666@;;-;>>,#,>&>66,r1>>#",
"-%.X+;67;689,#@@;,,,>&&&,6<r166,>-oo#@++&&X-##r,,+oo,#,,,,,,2,-&,;<;@=-;;67;,--6,686-%&>,,6,;6@;++@+@,7655;;;5;,,>2r1o>-,,,>1,@>",
",=.X@7786696#+5,1,>;+O+-,8>++#>6,->+#;@O&++@#,r,>>>>#9###9,>1,>-:&;,-@6;5;666--66qq;-=&-<<;=;;-,@-++@77;;,-;-@6;,281,,oX,8#>,,>>",
"66;;577668866##111-,,,,8,,,+++@@++>##;@;+&##>,,>+,,,288##9,>,,1@&XO+@5656656,=-;8w6,;;--+,,-;==<-+-@@@@--;-;;+;-,#191,oo,8,>1,,>",
",,665799667576#,,;;666687>#5#+@>+o+###>##,>@+>>&+,#,######8##82>&&oO-;6@;6@6;-;-75;;1-=->,,,;O-O;#@@@6+&=:--+O--,,,r8>-+##8,#,1,",
"=<,5@>776@66>,,66,,,66686#+67@#+#>@>+#86,,#++>>@>>@#,#####556,1&%&O--0666677,;@;;+O-,,,;;;,,=%+,#,,>;@;=%%:&%&--,8r#,,,>,,66>,>>",
":;,6,6777575+-6888,86,,#,6##5@@@,#@--#,###8#>>>->@+>>#####656#1$.--;@66;678666-=-=%;6-,,,@=-1&+@;;+-%%&%%,,&&--O>,r#,6,,,,6,,,-%",
";@@77,67665@->16,8,666666765@@,7#@@&>,,#>#r8,>>&+#++>,2##+56#>1&+++@@6@+@67,+;;=-=%1-;;,,-=*<&->--=%X%&$-6,:&=OX&,2,#>,,,8766,>+",
",;=66-;5;8;%%-;;,61+-;16076757755@+@->6,>,66,1,>@-#@>>##56667>>X-Xo>+-&&;,,,66;;-%$:=;=;6,<&=<<&-;--%%=O+,,,-&-=&>>>>5766667#,,,",
"5;1;;-<=*;;:%%%:><>o=:56587655556@66=O;+-67,+>66,6,,,#88,>##>>&X-&&%--%X%21;@@X:%%$%=:,0r>X.-<&===;-&-,+@#,+-@,+>>>&>,865#5,67#6",
";6t01-,<,-:=%*%=--=&=,555q87####6566;+;--#5#5-,,,w688,8##6666,>>->o&o*&&=-<<=*%%%:=$%<88ew%=-Xo=-;;-;-;;,+@-->;;&->>,68,5,6666,,",
";0qq050;6>:-:==%%&&-,,555556,975@@@;,;--O#,+,#5#>6r,,88,6,,#65,-1<&>1:>,1;51-<:-=<:%-,8689,-------;;;-;@,+@@+@;-oo&-@#>o@+#7756@",
"y00y555;,,;-:%%%$&<-,;,55#65#886@@;,;,>-=66++@,;;6@;,r#@,,->1,,><::,1<,,6121:::-:::;,68776,-+>,>--;;-=;6#,@OX+;;&-o%X+-&-;;8666,",
";5;00@;0;;-:=%%%%:-:;6;6655>>#,66;;;X.o+-,6,;@#->66>,,->11&o<1>>1<=>@>,>5<144<-=::;789866,>;@+<1-;;-%X+8@@6>-=++Xoo%X#,>,--,,,8,",
"0500005;;:-;:%%=-<>6;;0w65,<>>>#;--+%.O>-;;@-5@+,666881#>>>-<2>o<1->-;>>;4t<:1--1,;10780;>;+-+->55;-%.+6+O++,--O..o-@@,,--,,,0w,",
"0;0t0575---;-%:%-,6,66qq56,>>>&>++-;&o>7,X.O++--,618#2,,#181>81><1,--=@,,1<<-,-$:<;10080;--##6##;5;;OX;>+OoO==*$..%@@@##,,;,60ee",
"05q05555;;:--::%:,8>86,,6-;<:::=+>+=->>>-&Xo+---;,ee6,6,,,16><1<4w1--%=5;1:<<w:$%-1q,,w2-*%5656#6;;=>6+-=>-=:*%% X%:#>#,>->6#698",
"5;0155555;=-==::1yw<111=-=;-<1<:-->&@>-O@OO++-++>6881,8,<<<1><,><111<;;56;=<t3:%-;1:6>;:$%%;66588,=%@,-OO;;,-;=%%-%%O#@#>-->@#66",
"5;5;;q55-;+;==3<1t14t02*:*::<3<<**:-#>+@6@@@#O--,06,,,68,;11&&,#=1<:0q;;,,=:2:1,0;-%>-&&$%=;,8665,=+;;;->66>-;:*->O=>+->,,-o--;5",
";;;;=;5;=-@;;t1=;-quy0=*<<2t33<<:><>,>>,5,@,>#+--,,<>,,8;:1;-->>&;--08875,-;1wwy00;-&-=-%-;;,67756>6;;,8,06,--:&>66->>X>>>-+-@;5",
"1;;=:;5;=;55;0,-;-5qu1:&%=:t211<,<<1w1;:+-O+;,-&<>->,,,#;:,;@--;--6666,6,55;101,086;&:--:;,,,,668676,,,861,,,,-&O-#+o-$&&&>,,@;,",
"87;--55;+55@57;;;;11yu<%%--<:&-:-->-:,02---XX>>,1-:-,##>,;-1-;;---67,99,>#1,,1,-,6761666-;,;-@@,81,<--;66,>--,>oo;+->o&&1<->,666",
"885;=-;=X=;;5;65;;00ww1;:;;,1,-1--==&,yw-=;%->1>-&;-@;#+;6,--#-,,<;>;88==:@,0;,,;6,681>,;;;;+6@,#@>&o&--,,:,;;>=.+-@,o&&->&-6@@@",
",77-+-;=$$%;,5;;51q;11ty0;1;101,,OXO-1e8-*:;,,,,&>;@@5@-;,6>+&%6,--6801:%&<11;;-:,-<2,+#5;@;;-O;#@%-=o,6,,>8,;+>->#5,.->&&>;@OX+",
"+;7-+;;-%%=,66,,,,,,;;60w0t0;0;;0;-@;q08,:;,,>,6666#@@5+@;5;;=118,0981-&$%<t,;--**-&<,&;6#;;-o&->,->-@>#,,,801;;65,,,oo-o---=o=@",
"O;6;;6;=&=;,66;,<<1;;-@>18t0;-;5005q0;;66;,,,->766555;5++5;+;;;10,ee8,;:%=,q0,><<%&$>,-=;#>+=>-->1#>->#>,6,,,,;;777;OO=>%%=X;#;o",
"+@>;-,;---66;;,,><1,;-@,000000;55005;q078;;=>>+@##55555;=55--@;6;0w078;1--;6;0,1<&$&<-;,>@,>&--;#8,>+@##;,66;:=;656@=&:-&-,:;;++",
"777>=,;555,66,,:<>>#;@O;5q50qq55550555q88;XXO---@#55555;-:,;;;5;;;;-,6=-;;;;00-<1>>-+o&-,;>,>+@6686,>88,;-,,;1,,@@@-==-,>,6,=+@6",
",87,,65;@#,6,61-><>><1&-;;-,q5555565658w,O.XO+;:-@655;5@;0t;--;65;-;,6++;;;;+--@,,8-=--&;@,,#-#@#,6,@+-#;-;;-,6@@;;=-,,w6,7>->#6",
"68,#6;5566,66621@,1>1,1,,2:;0qq7555;558t,&XXO-@>-=;5,5;,;10;;--;;;<0q;;;;66;-##>,6,>;,,;>,,-;@,#>,##@+@,;-::-;+-;==:<,60066,6,@5",
",6;56@5@56,,68q,>2>>>,>201=;qqe9555;;68w:XoXX&@,=&;6;6,>;<--,5;1,>6e7;086,1;@,,->6>>,;>86,6>;,66#>++++@,-;21>;+&%%-;>,6,,,77#>>#",
",666566555#>>16*X-&-11>>11112088556;66w0,-&&=&;,;-;,;6w11;-+55,-1,ww;-0105-&#,>->,>@,-@,6>66@,5q,Xoo+##,;16>;O-o%%:%-76,5;5,,,;@",
"@6665566667+#,,+=-+;,,%>,2tw,>#655#>68,88;-%---O&&>#,,ww,@>+56,,>#8w,,110,-&;;>O@#,#,+&,6,6,;;-;>-&<>>,,w>,6>+@-&&-&->,1,6>#>+#+",
"#655#5566665#,66,;@-=*%%:<21,-+,96>,,1,>;-=O--X%&&>>,r866,+>;>;,>>9e8-><-,1-;;+O@>,##-,,6,@@76+;@&%>->>21&1,,>>><<1<->>&-;@>@+O>",
",@@5@6;;56677,1,66;;,-::&<-o&O+#6,>,,<>;&-=--&%%>&11,#,6,,>---,,##,,1%X>-t4-ooXOo+@@#+#,@;;;;5-+>,<>o&><>+>>,,,>1,w11<-&:--+>.Xo",
",55;5@+-@6768>2,;;-;>-&*:--O+oo##,;>>->=%----&X&+>,,28#,6>><-<1066,1>-><<1-=&oOX..&-+#6866;-O=.%-1w<*$*&-+>6766>-1211<-<:&o>&.&@",
"@@55>+-+-#67,1>,;;---&&:&-o;@OOo->>+>@;&O=&-&&O+>>>2,r,,61r<--,;557,<&<>;=:-;-+:o-++X#5666@=+Oo.X+6,,&-o&2<1,881&<1,>&-<>,,,>$>@",
"@@55#=>;###6,>>66+-=%%=&&&>>-+-X.&@>,5=;,;OOXO#>1,,,2,,#6,<*-;,555;6>-&-=%;--=O,8-##68876#@;OO#XX@>,,,>,><1>o12228,>,>>&>,8,>@#@",
"##56#->>>+>56>--,@;+=&%=>,7>>,>oXXX&>5,@++-,-+--88,,,>-,>>@-+;1;;5@56-&*%%;--=-;;;#>,8#6766@O+@o+;--->8,7,>,>>>rye666,>-&>,#,8,>",
"5665>-+&&&--@>---+;6-:-@,676#,#>----#56,>o=-=@>O,22,,>&>,,-o::--5556,;-O==<;-;,=-<>>>>,66,@@@OooO--%o-+###+>@>,e218,#>##>>##>,8,",
",66###+X$>&-@,16###,>>>>,798,@1,<--;;6,,#-@O+66++,w21,>>,8@-@+&::;5555#OO-666,6;,,,2,,2,##>,,>+>#>%XXXX&-;,,>61,>@>5>##665566676",
",,,#6>X%-&>-#8776,,,,,>#,71,#>,,;,>;;6-%,,>@@@++#>,w6,@>>,,>,,>>==556;,>-,666866#,,,>>>>#,,68,>+&o.XOXX-,666@;;;#+@5@56@@;>>,6,9",
"6,,8,@%X+&-@-#6668,,,68,,8,6,,88,,676,&--,>##@+@#>6ww8,>,,>-,#<,;=;;6;-,>,86,66;,,>>>>>>>>2#,,-o--o+++&&<66556;++-,6#,5,;-&=##,8",
"6#,,,>oXo>@+@,86#696667><168-,6,8,@,##+>o+##@@+++-778,8,6>#<1>>,1,,6,;>6,>@5@@65#>>o>>-+-,,,6###@&&++>>>;@6@556@;;,,>#,6;@;;#6,#",
",-,@#++++>+>#,#,886666#;>>66,,6###+@++@#>@@#7++@##@6#>,,6,,1,<<-,&->##,@->#@@,66>++o>#++o+o>,#@>>#o-6#>@,,656;666;6;;;@;++5,+#,@",
"--@,>@##@>#,,>,rw76,#>-;;,6,6686#++@@#@>oo-#@O+@#@+++-,,6w,8,,--,&-65,@>666@@66+@++-@++-->oo>++####655#>;>6@;;666#@666,--o+@>+@6",
"---++-++>##>>>>>1#6@+-O+;6@;>66,,-+>>+->o.O+OX-++oO++##,6,,66,-,-O+;@-#>>#>,#76+@@>,@-+--oooo+@8,##66@,,>>+@;=,5@@,68,=+Ooo++++,",
"+;>6,@##@#>>>&&&,@-o--=-@,+-&;>#>@+>>>&ooX+@+X@++-,#>,+@@6,>,-;O=<>o%oOoX=-#>6,>#@@,#-+-ooooo@>###,#@,6,,--;:;6565568;&=O--OO+O@",
"->,,,,,,>#>+&o&,1+@+-,0;-;;%->>,#>,11>+@>&+,#o-@>66655@@5;;;;,;,;;-=oo+XX&X-+@####,,@@@+&%-&&-#,@+#>@;>@>><-o-65;55,,-&=-OXXX>@5",
",,#,,,>->>>>&o&#+>>11178886+o>>,@>6,><>+->,,-&&>66;;556@5;,,--,6,#;;-&-+%oo+->>,,6r,@#>+>&++o+>+##+-@+;>,6,>@>;665;:-,-=+@X.+@#5",
"87,>>@&$>>##-@>,->>1>,67666@++1,#>,,>,,&@86,-&-687;;55556,,,66;56#6@++@+XO++-,>,,88,>##>>#@>-->->++#;;;--,;16,,;55-:;;;%O+oX+,#,",
"6,,++>&%&-####>,1,>>,,6>;5;;>61,>>1,;>6;#66>&-<ey1765@5;,w2,66@O+676;+#+oO-+@##,,,>@>#,#@>>>&>-&#++#;------,,6,755,1;;;-=-oO@@+#",
"->=,1,<O>>868,1>,66,,01>@---,,66,1;;-,6,->-%%-:11,8,655;;8w00--OO,6;+->>@+>-->,>6##>,;-#@@,,,>&&@+>-*;=,-,,,,60;;5,,;,6,;@@++=+-",
"-=&-66,,@#,,,,>@6,;;6>,,=@;-686,;6;@=-;5@@OX%1<&<66,#55@;q0;;;-%Xo-+#,++--#>@,,#6,,6,-+>@,,,66>&X++o%=:%*<1=16,;;8,;;;,>66@O+O-,",
"-X-;,6>;@@,>#>>,,@,;+-,--56,>6>;55;;;-;;@@+o%=*&-,,,#@>5557;;;-:%XO++++-@>&>&>,r6##,7+>@#6,9,,>+>>@+=-&-<-<-<1=-;,6,>>>=+;;X%=-;",
"-O-;-<-;>@-,,,@,,>;---=&@67666+;555;;;;@##,+-;---o&,,#@@5;;;,,;--;@,#>,#>X&>&>,,6>#;#-+>#566,;>+>,@+6@--08,@+<:1-6601,1-@6O%X%=-",
";--;--,,,@@>,,#,1---:-=--;,6,-++;55;=;@5;;+>>+o-;@O-=-;055;;,0,;=-666;,7=$%:=-;;@@-#5+&>,666#&X.->####@>,0>;-:*<>,6242>&&===&$%O",
"=-+,,,7,--,+>,,,;2,:-----@,,,><-;5;;;;;;@#+>--##-,>@=;-;;;;;,60,-;5;;6@=%:%:;,1->+#>6+X@,66#>&.X&-,##o+>;;@+==<&*>>,w1%$%%X&%%X-",
"-;,666,>-;>##-,6804:-=--;,,,1>>+1661;;;;;@6@+X+#@;;=:-5;555,,,,,65;;;;%%%=-;,,1=o#+>6+>>666,>>&o-#6,,---=-1-&,<=<<>,,,:&&:<%%X=;",
"=688w6,>-;,@+>,,011-;;1:-1,6>,6,8980<-+;,67#Xo#>--&:-,55;;6,0,,,>@;6;,=%$*-,6,,--+#+#>>>,67,,,>&&>#,6+*--::&-r2:-=<,<&&<&-1:=-+-",
"-66776,,;@>+#6>#6166;-21--,1>6679990-;,,,>-ooO,+>-X-;-;;;55-;;;1,,6;@6:%&:;;5;;%&>#@,,>->6##>>>>-=;;7;&;:%%%:8w<:%&;;:&&&,4<=-O-",
"-,6;666>->;>>,6606666;-:11y1,7768786;,76;--;=oO+#>&&==;;;55;;;,6,66;+;;;-;;5;--->,#,##>>,###,,,@-=-;+;;=%;;:=-&::&O;::<&*24<-=-O",
";,6@@66==-@->>8778,66-:-2e01,@@,+78,,>#57O=-+++>>>OX%=5;550---;@,,@@+-=X-;6;;-;,##,#,8688,8#,,6>-=;-+;:%%<--,-X=<*Xo&-<&&;2&&O--",
";65556,+>;,-o>#8778,,;%:08,,>--#-;,;>>;66;=-@##-+;OO%;5;5565@-;666,660;--;5;;;5666,,8#,6,,8,,1,,,,;,;O:;-:%-;,+;:%$*<,42<-1==-O;",
";;55@5-;,565#+,86#55#-&,6767+o+-;@;=:-;66@+#>+>;,,@;-;55566@+6@666,66w>#;,66555556666,<,68,86755;6,,;;;,;=&=,,@+-X%X&<<,10,-,6;;",
";@+@5-=;>>561>#6,#565+&-65+>-O@++;:;;<-79,+##>,;@@@@;-556@;,+@65,6,,,,>>;,,,665568,66,,-,,+,,5;5;7,6;,6+,X%&-#@@+-%Xo&-@;1,--;5;",
";@;+68,;8,,,>,,5@6555>--,++---+---=79;:66,->,,,@@56@-@@5#>,--+66#6,,,8,,6,--#65775;5;,-;##+O,,@;;0,,;;6@;%---<--&=--=-;;;;----;,",
"6++;;686,w6,>>65556,,>-++O@+;++O-;-qq0;;,##,#,;-;55@+;5;,6,<O-;8,6#,8,,886,,>#,655@557,,>#-O-,;;;6,06555-====-=-&&-=--@>;-<&%+,,",
">>>@,,,#>6,,>,5@#6,,6-++-@5@@@@+-;-+-=,;87#865,+5@@--56@@66-=-,,>>>#1,6887,,#6665555;q;,,#+@+;,;5qq,;;@;,-=--=+-=+++->,--11<:>>>",
"$-,@-&>>186,>65@56,,6#,,+@6#+#7@+;-,6886,6#,6,,#5>=O-@5;@6,--;-,&>o>>&,96196>>66555;550,,,;,;;,6678;-+;@@@-=--+-;>@+o<1=>1111#-o",
"o+>@,>6960666676@668,86>->,@+#676665;666#6#,1,>#@@+;@5@;,@,;-;:%%o->&%,6,,67#>#5555;55568,,,-;@6;,;;-=--@;-=--+O@@+>2t1---<-&->>",
"$.-#,,89,16666@556,1667#O#,,,#5566,@;66,#6,,8,>--;@,,5@,,,1*%:--->>--$,78666##+@;;;55;,68e0-OO;#;7;-;-O=;;;=OXXXO@O-ww1<-&:,,<&>",
"..-+#>>1,,,,#6@6>,,,,7,,>;,856@555@5;,,66666->>@+,+,6,,681>*$;;;>o>-%%-,,,76@5---;;;5;;08w2@++@56,;;>=-O----o&-O-+o-w1,;:%:;0-%$",
"oo.o>++>>1>,65@@+-><>7,->,,575555+55;;>,,666;>+@,-+>,666,>-o:6;;,,+>-&&--+69#5;-----;;;611,,-;@>@@;++-=oXO+-=O-,,@@,,,;--=--,-=%",
"#+..#6++&1>,,6,;#>,1>@&X->-#65565+5;5,;;;65@+>@@#---<,6,11--;;;;,#,,,>>>>566#5+@;6;---6622,-+@;;+@@@@O&XX=+-O=;66>,#,==-;=-;1-;=",
"@ooo69666,,,-,,7#>,>->>->>-@555,5@;576;6,;@@OOO##>---&,8,,>&;;;6##6#,,6877@;-@5@;,-;,;608,<+;@@+;@+,+-%&%---O-,,78,,>:-,;;-;6;;;",
"@XX+87,876,6;,,>,#,>+>,1>>@>@@@#+;676,@6,#@OXXX+##>o&=>>#,8>-,;;+@,+,77696,,;+,5,-=-1;66,1>--;+---O;=&=o----=->6986#6,,8,5@56,;;",
"+oO#####666,-:,->,>#>>,,>#--@>@>5;,,,-@;@@@+OO++@6,>:+>&&>,&=;,;;,,788868,,6++#,61:::;,,,<&o+=++O-;-. $%%=:--;,786,,67886555;6;;",
"#o##@#676@,,&&:->#>>>,,;,,>-->-@6,;+&X=@OOOOO@@@56>,>>,:>+&&=-;,5,82888666,6;,>>,,<&=>,,1>&=&%oO-;;-. $&%&=%-;,w16>;@7666565;;;6",
",o##@,776---;*,==@,,>,>,62>-&%+@;;+-XX-:++XXX+@@6#+,,66->>X.*;;;-,8998986666---&%&&%-,;>,:=-=++#5;;;X&<-%=:%--;6,1,>,6866#56;;;;",
">O@@+#66@;==;:*=->,,-,,,1<1&%-,@++-o&-&--+oXXX+#7@@,<-;:==%%:,8;-;6,8e998,6w1o%$$=&%>>@+>-ooO##6;;;=,w,,->,,--+>-;,;,7786,#6###>",
"#7,O+6#6;-=.$%&<>6,>>--o->1XX+@@++&%X+-O@@OOX.O+6+->,+-O-=%==157,,>;,9988,<1>&*.$-&$+<->#,@>#6655;--,6,,#,6666,>X;1,68888,6,>,>#",
"66@;#,57,;%.*%&,661<<#>->>;oO;#-+=-Xo+@@@@++XXO+,++>#,-,;===::16;,6,,666,,<&<*-@+#-%&1>-#,>,#6,#;@-,555@>@,#,8<>;,,-689862,>>1,,",
"766#,666:;-*--&,,6,6,1->#5>@;,;;-+-+++@5-++OXO+#@oooO+O6;-=:<<1;,,66,,689,1>8r##;5,*-,,,67687,6,55,86565##>>,,,66-Oo-,>7,>,>>166",
",7,666#>->-<*:-,666w86>#,>o&-@,#@@6@@+56+==-+##oX%X$&&o===O-11--@@,666886,,6rr6#66>&X>,8,6686+##,@,,666;>@,16066,---+-;>-=--+1,,",
",6;@677>-%X-&%=6,,,6,@#7,-:&-@55;-;;>=@#-;--o++%$X+>&:-;--;=;;;;,,66666,-#,889r##5>&o>,8,666#@>##>->;,;;>o&,,,,,,6,O@+@--=O+>+#,",
"666;>66>%.Xo=&;6,-=66,#>,>&&;55,;&%&;;,@+--%Xooo->--=+,;OO-=;,;;;766,66=o--<6898#65#+>>67655##77,;%>-<,8@><,8,###6,,5@66,;+;--++",
";;;;##,<O.%X--6,,,;,66,@@,>,6,+;;=%X-@5;--%%o+-o=,;@@>;;-+@;6:%-,8666w,-X.&>187#;66++-+666566##,,----->6->,28865>5555666+-O+>+o+",
",-@-@@O<.X%=-66,>66,6,>#@>,,,#o&-&%&->;;;===%-;O-,,,;;;;,-;6;-=;,18,1,,>%%-,86;-;>,+O&O;86#766--+&&&-,>++o+8w2,886##56;,;=oO;;-,",
",++++@++-X=,66#>+-,;XXo-@,67#>-+%$&>--;#;=-&X&;-,e8>-@,,>=O-;;;,,,2,,61>&-,686;%=-++o&-,6681,-+@X&o@>>-++##,8986,8#>;556,>+;,6#6",
",+@@@@@,;&=;6,->--#+X..->666>+X%&-,>,>,,-=,=Xo%-<,w>;;>6;-@-;;,,>&&1,#,,--,61+&o--&=+-,;@,,,>+&O++>>>,##+57#>1>116;-;;@>,,6>,676",
";+++@@,66;,,6>---;@XXooX+#>++>+&+,,#,66;>--O&%---11>->,6,;;;O-;;>>>->,,10,#,>+X&:=%=oo-=;;o->+O+@>>>>,,#@@@++,,,86@-,=;,,,w6,686",
"5-++;557666,5;;;55@OoOoo@#>@,#>@-6,5##,,<OO==;@#-,,@@66,;=,;=&-->&o->66786,->>&&oo%&o%&o--&&;+-,+>o>,#@+@XO+<,6,,6#,;,@;,86>;>#,",
";+@555560888885765##;@#;,,#,,#@>,,5#6>@>1----;6,,=-;;666;;6,-&-=+-.>,>#>6,,--,1:O-Oo+>-&@->=>,+8,&o>,>+o@XX+=68,>,,#5565,86@+>#6",
"-;5+-;-;,,06006;666565#>#,7666,,,66@@;+->>>-;66<:,56,,666@#@-O-;+>++>+O@,-1=+,>&O+-,,6>1,-;;,,,6>>&>#>o+OO@>+>,,>,##5#66,,6##,,6",
";@5;+;=-=6wt11,;@655@6;=-#66665+@66#,---;--,,,6--,@666w06@,,66;;,1#>+@+@+:&%+>#++@887766,=-;1,,6,,#>>oooXo-+-o+>>>,56#556,,+>,,,",
"++50--<;;6wt,,,0,6,,,#-@+>,8,@#o@6>#68#-;-;;#55@-,,,-,,;555#97666,07---&&o&.o+@>,,qyw81,6##>76,#,8r>>ooo.o+>>+>-o16>>>##;6,>,,,,",
"-;55;;-;68806,,t8#>#,#-##5,,#@++,,6689#-+-;@655,>--=-->,,5#>66;6686;1;1<&&*XX@@@@686,8766>;,666#,9,,>>o>>o&+@@+-O->>>,6#,6>-,,,8",
"5-;;,--,wyy08,-01,,8,,,>,6,o#+,6,86788,#-@66555>=*%&->;666>#,,55;75;>>-:%XXX+>@+,6;->>##>-%-,,>5688,>>>1>+>#@+-+O.X+#,##,6#&&>>,",
"97;--;=;0w0861-;8,,,86#9,#>+>>#,,8,,#@>>;5#5,#6;%*&--;->66@>6>@5;,02w&.XX-XX&>>1,6>Xo++++*&->,,66,8,oo&&>>>,@>#XXXo>---@>6,o&>>#",
"98;;=;-;<-,8,1,,>;668,,8>#>->,--,,,,>@+>>->5;55#%%&o,-o-56,76,6@,68w1*XX--&<>&<w18,&<-#+o->1>&,,,8r#oo.>>-->>,6>XX=-$$&>,#,>11>r",
"88;,5;;,,-,6,>1,,,,888,#>->-@,>@1&+@5>-6976@;#5>&:+&OO+O+#@6,6;6;6w6,,ooO<<<>>1e,,1>>@oo&&28>>>,>#,,,1o>>+>>&#,&X-;-X$&>@>>>>2>,",
";;;11<51,,;,7#,,1;;,,>@@@>>@>#>->&X+6#+6667@##6,#+O+#&o++;@#>,7,5866,1--O-,>>,w6,56,w@oXo>,,>>,,##>#,2#>+@>&$<1@+=%%X$&+>>&>>*>>",
";;;;,;56;,+@##610,@@+o++o#-@#--@-==#,,#5#@966,#>,+O+-O--##,;-,7666086;;;-@,><,,##6#11>++>1,82,##>>@@#,,>++-&%:,,O%==&o+@+&>>&:<>",
"1,1,;-;8,-=-O+5667;;=%&=;,+@++,>&--O+,,5#+##+++@#-O+O;-;#5>#>86w0w,,>;+-=->-+>6656@---&<,,899668,;-@-,<,>>>-----OO=O+o++o-=&&::>",
"8,,6;;,,1;6,>@75,;66,-*+;@++o+#+&&ooo@,65@+++O+@OOoO;@;-+#5,,66ew121:<%**$&:>,6555#,=**<,,,,,89r76,@@-&,,>+ooXo%=-O++++>%X%=*-,;",
">,,,,666,,66,7776;;,,6,;--O+OO+oX-;,@>,,>6@@#++@+o;+,7,;<##16668,>>%:%$$%%%:1886#56#-%>&>-->7779,,6,;@O,7-&o+--<O<-X+O+------<;-",
"+;,,;,2,6,86,,@686,6,61,=;O++o-O+>666,>#66,#@@@++-@,#5,;,,6,166661&<,%$X*$*:-,7666,>&&:---:=>,>6@O@@55661>--=,,0,-+oo+-O+--*-1,;",
"---,,w,,>,8,;;;67;6666;-&=o-,Ooo:>6665@,,#6,#@++,,@,,;--,,,,>,788>&>>>=::;::,:,676,,--->;--:&>##-->>#>6,,>>>+---;;+>@@oO,-,=%12-",
"+->8086,>-@@;-,,5;@5@5;;>@>#+>-o-,,556>;-O,6>,>;>;@676;;+--66>68,>1,-o-<:;6,,;16666#-&-,>---O#>#-=>6#66,>>-#+-,;--@,-=@>;&,,,1<=",
"@>,,66-60-%=%=;+@+666,;;@-,>+,>>;;;;6,+@+=;,,,#6>;666+-,@;,76+,8,>,>%&,-O;0;-;0,6###>->>,@,>->,,@+@,#6,,1&-,w1-;O&;@+o-@@-,,;,--",
",,#68,-:,&--===;@@566;6;;,,-->>-=:%-1-@,+o=>,>#,55566=++>@;,6#>,,,,-o,>+O<,-;-16,>,#>->&;6,-X,#@#5,@,,86+X>6ww,>+;,@+X.&@,-;;;,>",
"#,@57;=-::%=:=%;5;;56;6<=->-XO&=%X%-::;+O=---;,@55666>+o#+>76#;;,+@>-=-;--+---,186886,,>#6,,>,,@@+#-,686;->,,0,,,,#>-oo&;++,,#;6",
"@55;;@;;-<%%%=O;;;6;-65q<&,@OXo&$%-1&X;----=--;555,###&X@66,6#6,1;-+-=;;,<-O+--<>,8,1,>###8,1,,>+-@+>#,,,,66,,,,888##,>+;,#><>65",
"@@@;@@;;1:-:%;;-=;5=%---,,,+Oo==%%--&==-O=-==->@57,#,O-&+66666766,-O#;-+;>:>+-;=->#>#,,#,@6,>>-+>;+&@->,,6,6,21>,,8>,,#+>,5#>665",
"@@@@@+;;,6,-:=;;;6;---0;,6,--;------=--;--+-O-+#578@,,>->186@,8w1--+---==--<-+>,##>>,8,66,#,,#+o+@-->>,#,,,,8,6>@,#,,6,+>66,,,6@",
"--=;++5;;6;;;-->@66@,,0;,,>;;,,-+-;;-#;#;;=-&+>,--o&&1--,88,>>,>-&&&-:O-;>>-O+>5>#,>>886966>,,,>++><,2,,#->6,18,-#+#6,66;6,7,,;@",
"-:=;;5;5;;;--,--;676;65<;#->;,5;@5;>>-;@#+&=&o+-oX.&%:&-,168#>-&&&&o-<o-=O-O-,;,@#,@,89886,77,+Xoo>>>,,,#>>@,,>,>>##686#;6,,66-=",
"--===;5;,,,,,-%=@566;:6;;@@-,8;-556666,,>+X=&&o>-++,<&&O>>86,>,21>&X-<:&&O-;-,->8#-->69896#6,--&+-@>>>,##,,>>-o>#>>866#+=;;6#>--",
";55;;t0;6>:,1<=&@556;,7;@;>-,6,-@5766677#@>&+,>,,>>-1,&&,>,,,#,1,->>=X*1---;;:-6,#@>@,,87666>oXo<>>>+##>@>,@>>>-,#>#>6O-+=X;,>,1"
};
