/* XPM */
static char *rust_bump_128[] = {
/* columns rows colors chars-per-pixel */
"128 128 11 1 ",
"  c #7CB47CB47CB4",
". c #7D927D927D92",
"X c #7E917E917E91",
"o c #7F877F877F87",
"O c #808680868086",
"+ c #817D817D817D",
"@ c #827982798279",
"# c #837083708370",
"$ c #846284628462",
"% c #855B855B855B",
"& c #865086508650",
/* pixels */
"OoooooooOO$$OOooooOOOOOOO$$OOOOO o oooOOO$$OOOOOOOOOOO$OOOOOOOoOOOOOooooOO$O$OOOooooooOOOO$OO$$O$OO$O$OOO$OOOOOOOoooooOO$$O$O$OO",
"OooOooooOO$OOOoooooOooOOOOOOOOOOooo  oOO$O$OOOOOOOOOOO$OOOOOOOOOOOOOooooOOOO$OoOoo  ooOOOOOOOO$$$$OOOO$OOOOOOOOOooooooOOO$$$$O$O",
"OOOOOOOOOO$OOoOoooooooOOOO$$OoOoo o oooOOOOOOOoOOOOOOO$OOOOOOOOOOoOo oooOooOoooo     ooOOO$O$$$$O$OOOOOO$OOOOOOOooooooooO$O$O$O$",
"OOO$$$OO$O$$OOoOoooooooo$OOOOooo   oooOOOoooooooOOOOOOOOO$OOOOOOooooo oooooooooo  o  oooOOO$O$$$$OOOOO$OO$$$$OOOooo   ooOOOO$$OO",
"O$OO$$$OO$OOooooooooooooOOOOOOooo  oOOOOOoooooOOOOOOOOOOOOOOOOoooooo oooooo oo ooo oOOOO$O$O$$$OO$OOOOOOO$$$$Ooo o   oooOOO$OO$O",
"$O$$$O$$$$OO oooooooooOOOOOOOOooooooOOOOooooooOOOOOOO$$OOO$OOOOooo o oooooooo  oooooOOOOO$O$$$O$OO$OOOO$$$$O$OOo oo  oooOOOOO$$O",
"O$$$$$O$OOOOoooooOOooOOOOOOOOOooOOOOOOoooooooOOOOO$OOOOOooOOOOOOooooooooooo  oo OOOOOOOOOO$$OOOO$OOOOOOOO$$$O$Oooo ooooooOOOO$O$",
"OOO$$$O$OOOooo oooOOoOOOOOOOOOooOO$$OOoOooooooOOOOOOOOoOOOOOO$OOooo ooOOOoooooooOOOOOOOOOOOOO$OOOOOOOoooOOO$$Ooo oo ooooOOO$OOOO",
"$O$$$O$$OO$OooooooOOOOOOOOOOOOO$OO$$OOOOoooooooOOOOOo ooooooOOOOOoOOOOOOOOOOOOOOOO$$OOOOoOOOOOOO$$OOOooooooooooooooOOOOOOOOOOOOO",
"O$$$$OOOOOOOooo oooOOOOOOOOOO$$O$O$OO$$Ooo oooooOOOOoooooooooOOOOOOOOO$$OOOO$OO$OOOOOOOOOOOOO$$O$OO$OOoooooooooooOOOOOOOOOOOOOOO",
"$OO$O$$O$OO$OooooooOOoOOOOOOO$O$O$O$$$OOoo  oooOOOOOooooooooooOoOOOOOOOOOOOOO$$$O$$O$O$OOOOO$$$$$$$OOOOOoOoo o ooOOOOO$OOOOOOOOO",
"O$O$$$OOOOOOooooooooooOOOO$$$O$$$$$OOO$Oooo ooOOOOooooo ooooooOOOOOOO$OOOOO$$$O$$O$OO$OOOOO$O$$$$O$OO$O$OOooo oooOOOOOOO$$OOOOO$",
"$OO$O$O$$OOOOOooooooOOOOO$$O$$O$$$O$O$$$OOoooooOOOo o  o ooooooOOOOOOO$OOOOOO$$$O$$$$OO$OOOOO$$$$OO$O$OOOOOooo ooOOOOOO$$OOOOOO$",
"O$$$$O$OO$$O$OoOooooOOOOOO$$O$$$$$$OOOOOOOooooooOOooooo  oooo OOO$$OO$O$$O$$$OO$$$$OO$OOOOOO$O$$$O$O$O$O$OOoo  oooOOOOOO$$OOOOO$",
"$$$OOO$O$O$OOOOOooooOOO$$O$O$$$O$OO$O$$OOOooooOOoooooooo    oooOO$O$O$$OO$$OO$$$$$$OOOOO$O$O$$$$$O$OO$OOOOOo    ooOOOOOOOOOOO$$O",
"$O$O$OO$O$O$$OOOOOOOOOOOO$$O$O$$O$$OOOOOOOOoOOOOooooooo ooooooooOO$OO$O$$OO$$O$$$$$$O$$OOOO$$$$O$$$$$$O$OOOOo  ooOOOOOOOOOOOOOO$",
"$$OO$OOO$OO$O$OOOOO$$O$OOOO$$O$O$O$OOOOO$OOOOOOOoooOOOOOOOOOOOOO$$O$$$$$$O$O$OO$$$$OOOO$OOOO$$$$$O$$O$$OOOOOoooooOOOOOOOooooOOOO",
"OOOoOOOOO$OOOO$OOOO$$OOOOO$OO$$$$OO$$OOOO$$O$OOOoooOOOOOOOOOOO$OOOOOOO$OO$O$$OO$$$$$OOOOOOOOOO$$$$$OO$OO$O$OoooOoOOOOOOoooooOOOO",
"ooooOOooOO$O$OO$OO$Oooo ooOO$$$OO$$OO$OOO$O$OOO$ooOOOO$OO$O$OOOOOOOOOOOO$OOOOO$OO$$$OOOOooO$$$$$$OOOO$$OO$$OOoOOOOOOOOOOooooOOOO",
"oooooOooOOOOO$$$$$$OoooooooOOOO$$$O$OOO$OOO$$$OOOOOOO$OOOOOO$OOOOOOOOOOOOOOOOOO$$OOOOoooOOOO$OO$$O$OOOOOO$$OOOOO$O$O$$OOoooOOOOO",
"ooo  oooOOOOO$$$$$OOooo oooOOOO$$$OO$O$O$O$$O$$$$$OO$OOOOOOOOOOoooOOOOO$OOOOOO$OO$$OooooOOOO$O$OO$OO$OOOOO$$OO$OO$$$$OO$$O$O$$OO",
"ooo  o oOOOOO$$O$OOOoooooooOOOOOO$$OOOOOO$O$$$$$OO$OOOO$$OOOoOOoooooOOOOOOOOO$O$$$OOooooOOO$$$OOOOOOOOOOO$$OOOO$$$$$$$$OO$OOOOOO",
"oo o   oooOOO$$OOOOOooooo OOO$$O$$$O$O$O$O$$$O$$$OOOOOOOO$OOOoOOooooooOOOOOOO$$OO$OOooooOOO$OO$OOOOOOOOOOO$OO$$$$O$OO$O$$$OOOOOO",
"ooo o   ooOOO$O$OOOOOOoOooOOOOO$O$$$$OO$O$$$$$$$$$OOOO$OOOOOOOOOoooooooOOOOO$OO$$OOOoooo$OOOOOOOOOOOOOOO$$$$$O$$$$$$$O$OOOOOOOOO",
"o o       oooO$OOOO$O$OOOOOOOOO$O$$O$OOO$O$$$$$$$OOO$OOOOOOOOOOOoOOoooooooOOOOO$OOOOOOOOOOOOOOOOOOOOOO$O$$$$$$$$$$$$$OOO$OOOOooo",
"ooooo      ooOOOOOOO$O$O$O$$$OOOO$O$O$$OO$$$$$$$$OOOOOOOOOOOOOOOOOOOoo oooOOooOOO$$$O$O$O$OOOOOOOOOOOOO$O$$$$$$$$$O$OO$$OOOOoooo",
"  ooo    o oOOOOOO$$$O$$O$OO$OOO$OOO$$O$$OO$$$$$OOOOOOOOooooOOO$O$OOOooOOOOOooooO$O$OO$O$OO$OOOOOOOOOOOOO$O$$$$$$OOO$O$OOOOOoooo",
"oooooooo  o oOOOOOOO$$O$$$$OOOOOOOOOOOOOO$$$$$$$OOOOOOOOooooO$$O$O$OOoOOOOOOooooOOOO$OOOOOOOOOOOOOOO$$OOO$O$$$$$$O$O$OOOOOOOoooo",
"OOoooo oo  oOOOOOOOOO$$$$$$$$OOOoooOOOO$$O$$$$$OOOOOOOOO oooO$OO$$$OOOOOOOo ooooOOooOO$OOOOO$OOOOOOOO$OOOOOOO$$$O$O$$OOOOOOOoOOO",
"OOOooo o oo oOOoOOOOO$$$$$OOOOOOooooOOOOO$O$$$OOOOOOOOooooooOOO$$$$O$OOOoooo oooooooOOOOO$OOOOOOOOOOOOOOOOOOO$O$$O$OOOO$OOO$OO$O",
"O$Ooooooo ooOoOOoOOOO$$$OOOO$OOOoo oooOOO$$$$OOOOOooooo ooooOOO$$$$$O$OOooo o oooooooOOOOOOO$OOOoOOOO$OOOoOOO$$O$OOOO$O$$OOOO$O$",
"$OOoooo oooOOoOOOOOOO$OO$OOOOOOOoo   oOOOOOO$OO$OOoo   ooooooOOO$$$OOOOOooooooooooooOOO$$OO$OO$OooOOOOOOOOOOOOOOO$O$$O$O$OOO$$O$",
"$OOOooooo oooOOOoo  oooooooooooo      ooOOOOOOO$Ooooo  o  ooOoOOO$$OOOOOoo oooooooOOO$$$O$OOOOOooooOOOOOOOOOOOOO$O$OO$$O$OO$$$$O",
"$$O$ooooooooooooo ooooo ooooooo       ooOOOOO$OOoooo    oooooooOOOO$$OOO oo ooooOOoOOOOO$OOOOoooooOoOOOOOOoOOOO$O$O$$$O$$$$$$$$$",
"$$$Ooo o oooooooooooo ooooooo        oooOOOOOO$Oooo      ooooOOOOO$OOOOOoooo oooOOOOOOO$OOOOOOoooOoOOOOOOOOOO$OOO$$O$$$$O$$$O$$$",
"OO$Ooooooooooooooooo oooooo     oo o oooOO$$$$OOooo  o o  ooOOoOOOOOO$$Ooooo ooooOOOO$$O$OOOOOoooOOO$$O$$OOOOOO$$O$$$$OOOOOO$$$O",
"$OOOOoo oOOoooooOooooooOoooo    ooo oooOOO$O$$OOoooo o oooOOOOOOOOOO$OOOooooooooOoOOO$O$OO$OOoooOOO$O$O$$OO$O$$O$$$$O$OOOOOO$O$O",
"$OOoooo ooOoooooOOooooOOoooo oooooooooOOO$$$$$$Oooooo ooooOOOOOOO$$OOOOOoooooOooooOOO$$OO$OOOoooOOOOOOOOO$$O$O$$O$$$OOOOOOO$O$O$",
"OOOOooooooOOooooOOOOooOOoooooooOoooooooO$$$$$$$OoooooooooOOOOOOOOOO$O$OoooooOOOOOOOOO$OOOoOOooooOOOOO$O$OOOOO$$$$O$OOOOOOO$O$O$O",
"OOOOoo ooooOOoooOOOOOO$OoooooOOOooooooOO$O$$$$$$ooooooOooOOOOOO$$$OOOOOoooooOOOOOOOOO$OOOoOOooooOO$OOOOOO$OOO$$$$$O$OOOOOOOOO$O$",
"ooooo ooooooOOOOOO$OOOOOOOOOOOOOoooOOOOOO$$$$O$$$OOOOOOOOOOOOOOOOOO$OOOOOOOO$OOOOOOOO$OOoooo oooOOOOOOOOOOOOOOOOOOO$$OOOOOOOOO$O",
"o o  o o o oOOO$$OO$$OOOOOOO$$$OooOOOOOOO$$$$$$$$$OOOOoOOOOOO$OOO$O$O$$OOOOO$O$OOOOO$$$Oooo    ooO$O$OOO$OOOOOO$OOOOO$OOOOOOOOOO",
"ooo  oo ooooOOO$$O$OOOOO$O$$$$OOOOOOOOO$$$$O$$$$$OOOOOooOOOOO$OOOOOOO$O$$OO$$O$OO$$$$$$Ooo      oOOOOOOOOO$OOOOOOOOOOOOOOOOOOOOO",
"ooo    o oooOOO$$OO$$$$$$OO$O$$$OO$O$$OO$$$$$$$$$OOOoooOO$O$OOOoOOO$OO$OOO$O$$$$$$$$$$OOooooo   oOOOO$O$$OOOOOOO$OOOOOOO$O$OO$OO",
"oo  oooo oooOO$$$$$$O$$$$OO$$$OO$O$OO$$$$O$$$$$$OOOoOOO$OO$Ooooooooo$$O$$$O$$$$$$$$$$$OOooo     oooOOOOOOOOOOOOOOOOOooOOOOOOOOOO",
" o oOOooooooOO$O$$&$$$$$$OOOO$$$O$O$$$O$$$$$$$$OOOoOOOOOOOOOoooo   oOO$OO$$$$O$$$$O$$O$OOooo   o oooOOOOOOOO$OOOOOooooOOOO$$$OOO",
"ooooO$OOooooOOO$$O$$$$$OO$OOO$$$$$$$OOO$O$$$$$OOOOOOOO$OOOOOo     ooO$$O$O$$O$$OO$O$OOOOooo  oooooooOOOOOOOOOOOOoooooOOO$O$OO$OO",
"ooooOO$OOoOOOOO$O$O$OO$$OOOOO$OOOO$O$OOO$$$$$$$OOOOOOOOOOOoo o oo oOOO$$$$OO$OO$OO$O$$OOoooo oOOooooO$$$$$$$$OOOooooOOOO$OO$OOOO",
"ooOOOO$OOOOOOooooOOO$O$OOOOOO$$OO$O$OOO$$$$$$OOOOOOOOOO$OOOooo    ooO$$O$$OOOO$OOOO$OOO$OoOOOOOOOOOO$$$$$OOoOoooooooooooOO$OO$OO",
"OoOOOO$$$OOOooooOOOOOOOOOOOOOOOOOOOOOOOOOOO$$$$OO$OOOOOOOOOo oo o ooO$O$OOOOOOOOOOOOO$OOOOOOOOOOOO$$$$$$OOooooOoOoooooooOOOOOOOO",
"OOOOOOO$$OooooooooOOOOOOOOOOOOOOO$OOOOOOO$$$$$$$$O$OOOO$OOoooo oooooOOO$$OOoOOO$O$OO$O$OOOOO$OO$OO$$O$$OOOooooooooooooOOO$OO$OOO",
"OOOOO$$OOOOoooooooOooOO$OoOO$OOOOOOOOOOOOOOO$O$OO$O$$$OOOoooooooooooOO$OOOOoOOOOOO$$OOOOOOOOOOOO$OOO$OOOOOooooooooooOOOO$OO$OOO$",
"OO$O$$$OO$OooooOOOOOOOOOOOOoOOOOOoooOooOOOO$$O$O$$O$OOOOOOoOooooooOOO$$$OOoooOOOO$OOOOOOOOOOOOOOO$O$OO$OooooooooooooooO$$$O$$$OO",
"$$O$OOO$OOOOoOoOOOOOO$$$OOOOOOOOOooOOoooOO$O$$$$OO$$$$OOoOOoOOOOOO$OOOOOOOOooOOOO$OOOOoOOO$$O$$O$O$O$$OOoOooooooooooooO$$$$$$OO$",
"$OOOOOOOoooOOOOOO$$O$$$$$O$OOOOOooOOOOooOOOO$OO$$$$OOoOoooOOOOOOOOOOOOOOOOOoOOOO$OOOOOOO$$$$$$O$$OO$OOoooooo ooo oooooO$&&$$$O$O",
"$$$OO$OOoooOOOOOO$O$$$$$$$O$OOOOOoOOOOOO$O$$$$$$$OOOOooooOOOOO$OOO$O$O$OOOOOOOOOOOOOOOOO$O$OO$$OO$$OOOOoooooooooo ooooO$&$$$$$$$",
"OOOOOOOOOooooooO$$$$$$O$$O$$OOOOoOOOOOO$OO$$$$$$$Oooo    ooo$OO$$OOO$OO$O$OOOOOOOOoOooooO$O$OOO$$$O$O$OOOOOoooo  ooOOO$$$$$$$O$O",
"OOOOOOOOOOooooooO$OO$O$OO$O$$OOOoOOoOO$OO$OOO$O$Oo o   o oooO$$OOO$$OO$OOOO$OOOOOOOoooooOOOOOOOO$O$$OOOOOOOOoooo ooO$O$$$$$$O$$O",
"OOOOOOOOOoooooooOOOOO$O$O$$OOOOooooooOOoOOOOOOO$oooo o  oooOOO$O$OOOO$O$$OOO$OOOOOOOooooOOOOOOOOO$OOOO$OOOOOoooo oOOO$O$$O$$$OOO",
"OOOOOOOOOOooooooOO$OOOOO$OO$OOOOooooooOoOOOOOOOOoooo o o oOOO$O$$$$O$O$OOOOOOOOOooOoo  oOOOOOOOO$$$$$$$O$OOOooooooOOOOO$$$$$$$$$",
"O$OOOOOOOOOOOOooOOooooO$O$$OOOooo ooooooOOo  oOOooOooo  oooOOO$$$O$$$$OOOOOOOOOOooOOooooOooOOOO$O$$$$$$O$OOOoooooooooooO$$$$$$$O",
"$O$OoOOOOOOOOOoooOooooOO$O$O$Oooo  oooooOOo ooOOooOoo    oooOOO$O$$OO$$$$$O$OOOOOOOOooooOoOoOOOO$$OO$O$$$O$OOoooooo oooOOO$$$OO$",
"OO$OOOOOOOOOooooooooooOO$$O$OOOo  oo ooooo ooOOOooOoo    oooOOOOO$$$O$$$OO$OOOOOOOOOooOooooOOOO$O$O$$$$$$$$OOOooooooooOOO$O$$$$$",
"$$OOOOOOOOOOoooooooooO$$$O$OOOOo     o ooooooOOOOoOOooo  oooOOO$O$$O$$O$O$O$OOOOOOOOOoOoOooooOOO$O$$OO$$$OOOOOooooooOO$O$O$$$$$O",
"O$OOOoooOO$OOoooOOOOO$$$$$$OOOOO  oo oooooOOO$$OOOOOOoo    oOOOO$$O$$$OO$OO$OOOOO$O$OOOOOoooooOOO$$$O$O$O$OO$$OOOOOOOO$O$$$$$$$$",
"$OOoOoooOO$$OOOOOOOO$$$$$$$OOOOOoooOooooooOO$$OO$O$OOo   ooooOO$OOOOO$$$$$$$OOOOO$$OO$OOooooooOOO$O$$$$O$OOO$OO$O$OOOO$$$$$$$$$$",
"$OooooooOOO$OOOOOO$$$$$$$$$OO$OOooOOooOOooO$$OO$OOO$OOo o ooOOOO$O$O$O$$OO$OOOOO$O$O$$OOooooOoOO$O$OO$$O$OOOOOOOO$$OO$O$O$$$$$O$",
"OOooooooooOOO$OOOOO$$$$$$$$$OOO$OoOOOOOOOoO$$$$OO$OOOOo o ooOOOOOOOOOOOO$$OOOOOOOO$$OOOOOOooOOOOO$O$$$$$O$OO$OO$$O$O$$O$O$O$$$O$",
"OOoooooooOOOOOOOO$O$$$$$$$OOO$$OOOOOO$OOOO$$$$OOO$OOoooo  ooOOOOOOOOOO$$$OoooooO$$OOOOOOOoooooOOO$$OOO$$OO$$$OOOOOO$O$OOO$O$$$$O",
"$Ooo oooOOOO$OOOOOOO$$$$O$$OOOO$O$O$$$$OO$$O$$$$OOOO oo oooO$OOOOOO$O$OOOOoooooOOOO$OOOOOoooooOOOOO$O$O$$$OOOOOO$OO$$OO$OO$$$O$$",
"Ooo ooO$O$$OOOOOO$OO$$$$O$O$O$$$$$O$$O$OO$$O$$$OooOoo o oooO$O$OO$OOO$O$OOooo ooOO$OOOOOOooooooOO$OOO$$O$O$OOOO$OOOOO$OOO$O$$OO$",
"Oo oooOOO$OOOOOOOOOOOOOO$O$O$$$$$$OOOO$$O$$$$OOOOooo o ooOOO$OOOOOOOOOOO$Ooo oooOOOOOOOOOOOoooooOOOOOOO$O$OO$OOOO$O$OOOOOO$O$$$O",
"ooo oooOO$OO$OOOOoooooOOOO$$$$$$$$$O$O$O$$$$OOOOooo o  ooooO$OOOOOOOOO$OOOOooooooooOooOOOOOOooooooooOO$$OOOOOOO$$O$OOOOOOOOO$OO$",
"oo  ooOOO$OOOOoooooooo$O$O$OO$$$$$$OOOO$O$O$OOOooo ooooooOOO$$OOOOOOOOOOOOOOooooooOOooOO$OOOoo  ooooO$O$$OO$OOOOOOOO$$O$OOOOO$OO",
"oo  OOOOOOO$OOOoooooOOO$$$O$$$$$$$O$$OOOO$$OOOOooo oooooOOOO$$OOOoOOOOOOOOO$oooooooooooOOOOOooo   ooOO$O$OOOOOOOO$O$$OOOOOOOOOOO",
"ooooOOOO$OOO$OooooooOOO$$$$$$$$$$$$OO$O$OO$OOOOoooooo ooOOOOO$OOOOOOOOOOO$OOoooooo  oooOO$OOOoooooooOOO$OOO$$OOOOO$O$$$OOOOOOOOO",
"OOOOOOOOOOO$OoooooOOOO$$$$O$$$$$$$OoOOO$$O$OoooooooooooooOOOO$$OOOOOOOOOOOOOOOOoo     oo$O$OOOOoo OOOOOO$O$OOOOO$O$$$O$$OooOOOOO",
"$OOOOOOOOOOOOo  oOO$O$OO$O$O$$OO$OOoOOOOO$OOoooooo ooooooOOOO$OOOOOO$OOOOOOOOOOo       oOOOOO$OOooOOO$$O$OOOOO$OO$OO$$OOOooOOO$O",
"O$OOOOOOOOOOOo oooOOOO$O$$$$O$OOOOoooOOOOOOOooooooooooooOOOO$OOO$OOO$OOOOOOOOOOo      ooOOOOOO$OoOO$$$$$$$OOOOOOOOO$OOOOOoOOOOOO",
"O$$OOOOOOOOOooo ooOOOOO$O$OOOOooOOoooOOOO$OOOOooooooooooOOOOO$$OOOO$OOOOOOOOOOOooo o  ooOOOO$$$OoO$OO$$$$O$OO$OOOOOOOOOoooOO$$O$",
"$$$OOOOOOOOOOooooooOOOOO$$OOooooOooooooOO$$OOO$O$OOOOOOOOOOO$OOOOOO$OOOOOOO$OOOOOoo   oooooO$OOOOO$O$O$$$$O$O$OOOOOOooo ooooOO$$",
"$$$$$O$OOO$OOO ooooOoOO$OOOOoo ooo  oOOOOOOO$OO$$OOOOOOOOOOO$O$OO$OOO$O$$OOO$O$OOo o   oooOO$$$$$$$$O$$$$$$OOOOOOOOOooo   ooOO$$",
"$$$$$O$O$O$OooooooOOOOOOoooo     o ooOO$O$O$$O$OO$O$$OOOOOOOO$OO$$OO$OOOOOOOOO$$Ooooo ooooOO$$$$$$$O$$$$$O$$$OOOOOOOoo oooooO$O$",
"$$$$O$OOOOOOOoooooOOOOO$Oooo   o  ooOOOOO$$$$$$$$O$OOOOOOOOOO$O$$O$$O$OOOOOOOOOOOOoo ooooO$$O$$$$$$$$$$$$$$O$$OOOOOOo ooo ooOOO$",
"$$$$$OO$O$$OOOOOoOOOOOOOOoooo ooooOOOOOOO$$$$$$$O$O$OOOOOOOOOOO$$$O$OOOOOOOOOOO$$OOOoooOOO$O$$&$&&$$$$$$$O$$$$OOOOooooooooooOOO$",
"O$$O$O$O$OOOOOOOOOoOOOOOooooooOOOoOOOOOOOOO$O$$$$$$OOOOOOOOOO$O$$OO$O$OOOOOOOO$OO$$OoooOO$$$$$&&&&$$$$$$O$O$O$OOOoooooooooooOOOO",
"$$$$O$O$O$$$$OOOOOOOOOOOOOooooOOOOOOOOOOO$O$$$$OOOOOOOOOOOOOO$OOOOOOOOOOOOOOO$O$O$O$OOOOOO$$$&$&$$$OOO$$O$O$$O$OOOooooooooooOOOO",
"O$O$$O$OO$$$OOOOOOO$O$OOOoooooOOOOOOOOOOO$$$$O$$$$OOOOOOOOOO$OO$OOOOOOOOOOOOO$$OOO$OOoOOOO$$&$$$$O$OOOOOOOOO$O$OOOooooooooooOOOO",
"O$O$$$O$O$$$OOOOOOOOOOOOOOOOO$OOOO$OO$$O$O$$$$$O$OOooOOO$OOOOOO$$OOOOOOOOOOOO$$$$O$OOoOOOOO$$$O$OOOOOOOooooooOO$OOoooOOOoo ooooo",
"$O$$OO$OOOO$$OOOOOOOOOOO$OOOOOOOOOOOOOO$$$$$$$$$O$OOOOOOOO$$$$$OOOO$OOOOoOOOO$OOO$O$OOooOOOOO$$O$OOOOOoo o oOOOOOOOOOOOOoooooooo",
"O$O$$OOOOOOOOOOOOOOOOOOOO$O$$OO$OOOOOO$OO$$$$$$OOOOOOOO$$O$OO$$O$OOOOOoooOOOOOO$$O$$OOooOOOO$O$$O$OOo  o  ooOOooOOO$OoOOoooooooo",
"OO$OOOOOOOOOOOO$$OOOOO$$$OO$$O$O$OOOO$OO$$$$$$$O$OOOOO$O$OOO$$$OOOOOOOooOoOOOOOOOO$OOoooOOOOOOOOOOOOoo  o ooooOoO$$$OOOOoooooOOo",
"OOOOOOOOOOOOOO$OOOOOOOO$OO$O$$OOOOOOOO$$$$$$$$OOOOOOOO$OO$$OO$$$$OoooOooooooooOOO$$OOOOOOOoooo$OOOOOo ooooooooooO$$$$$OOOO$OOOOO",
"OOOOoOOOOOOOO$O$$OOOOO$O$OO$O$O$OOOOOOO$$&&&$$O$OOOOoOOO$O$$$$$$$OooooooooooooOO$OO$$OOOoooooOOOOOOOoooooOoo oooOOO$$$$OO$OOOOOO",
"OoooooOO$OOO$OOOOOOOOOO$$OOOO$O$OO$OOO$$$$$&&$$Oooo oooOO$O$O$$OOOooooooooooOOOOO$OO$OOOooo OOO$$OOOoooooooooo  ooO$$O$O$$O$$O$O",
"OoooooOO$O$OOOOOOOOOOOOO$OO$O$$$O$OO$OOO$$&&&$O$oooo oOOOOOO$OO$OOooooooooooOOOO$O$$O$OOoooooO$O$OOoooooooooooooooOOOOO$O$$$O$O$",
"OOooooooOOOOOOOOOOOOoooOOOOOOO$$$O$$OOO$O$$$&$$OOOooooooOO$$OOOOOOooooo ooooOOOO$O$OO$$OOooOOO$OOOOOOOOOOOOOOOOOOooooooOO$$$O$OO",
"OOOoooooOO$OO$OOOOooooooOOOOO$$OO$OO$OOO$$$$$$$OOOOOooooOOOO$OO$OOooooooooooOOO$OO$$$$OOOOOOOOO$$OOOOOOOOO$OOOOOOOoo  ooOO$$OOOO",
"OOOo oooOOOOOO$OooooooooOOOOO$$OOOOOOOO$$$O$$O$$$$OOooooOOOOOOOO$$Oo oooo OOOOOO$$$$$$OOOOOOOOOOOOOOOO$$$$O$$OOOooo  oooOO$OOOO$",
"OOOooo oOOOOOOOOooooooooOOOoOOOOOOOoOOOOOOO$$$OOOOOOooooOOO$O$$$$$Ooo ooooOOOO$$$$$O$$$$$OO$OOO$O$OOOO$OO$$O$O$Ooooo oooO$OOOOOO",
"oooooo ooooOOOoo oooooooooOOOOOOooooooooOO$O$$$$$OOoooooO$OO$OO$$$$Ooooo oooOO$$$$$$$$$O$$OO$OOOO$$OO$O$$$$$O$O$OOOoooooOOOOOO$O",
"oooo o ooooOOooo oooooooooOOOOOOooooo ooOOOOOOOOO$OOoo oOOOOOO$$$$$OOOOOooOOOO$$$$$$$O$$O$O$OOOOOOOOOOO$O$$$$O$OOOOOooooOO$$OOOO",
"ooo  oo oooOOoooooooo ooooOOOOOOooooooooOOOOOOO$$OOOooooOO$OOOOO$$OO$OO$O$OOO$$$$$$OOOOOO$$OO$OOOO$OOOO$$$$$$$O$OOOOooooO$$O$OOO",
"ooo o oooOOoooooooooooooooOOOOOOooooooooooooOOOOOOooooooOOOOOOOOOO$OOO$O$$$$$O$$$OOOOOOOO$OOOOOOOOOOOOO$$$$$$$$OOOOOooooOOOOOOOO",
"oooo oooooooooOoooooooooooOOOOOOOOOOOOoo oo o  oOOoOO$OOO$OOooooOOoooOO$$$$$$$$O$OOooOOOOOOOOOOOOOOOOOO$$$$$$$O$$OOOOOooOOOO$$OO",
"Ooooo ooooOoOOoOooooooooooOOOOOOO$OOOOooo ooooooOOOO$O$OOOOOooo oo ooO$$$$$$$OO$OOooooOOO$$O$OOOOOOO$O$O$$$$$$$O$O$OOOooOOO$OOO$",
"OoooooooOOOOOOoooooooooooooOOOOOOOOOOOoo oooo ooOOOOO$$O$OOOoo  o ooO$O$$$$$$$OOOOOooooOOO$OOOOOOOO$O$$OO$O$O$$$$OO$OOOoOOOOO$O$",
"OoooooooOOOOOOOOooooooooooOOOOOOOOOOOOOO o oooooOOO$$O$$OO$Ooo oooooOO$$$$$$$O$OOOoooooOOO$$OOOOOO$O$O$$OO$O$$OO$$$$OOOOOOOOOO$O",
"OOooooooOOOOOOOOooooOOOoOOOOOOOOOO$OOOOOooooo ooO$O$$$$$$OOOOO  ooOOO$$$$$$$$$$OOoooooOOOO$OOOOOOOOO$$$OOO$O$$$$$O$OO$OOooOOOO$O",
"OOoo  oo$OOOO$OOooooOOoOOOOOOOOOOOO$$$OOooo  o oO$O$$$$$$OO$OOoooOOO$OO$$$$O$O$OOooOoOOOO$O$O$O$OOO$$O$OOOOO$OO$O$$OO$OOOoOOO$OO",
"OOOo  ooOO$OOO$$$OOOOOOOOOO$OOOOOOO$O$OOOoooooOOOO$$$&$&$O$OOOOoooOOO$$O$O$OOOOOOooOOOOOOO$O$OOOOOOOO$OOOOO$$$O$$$$$$OOOOOOOOO$O",
"$OOoooooO$$$$$OOOOOO$OO$OO$O$O$$$O$$OOOOOoooOOOO$$$$$$$$$OOOOOooooOOOOO$$O$$$OOooooOOOOO$OOO$OOOOOOOOOOOOOOOOO$O$$$$$$$OOOOOO$O$",
"OOOooooOO$$$$$O$$$O$$OOOO$$O$OO$OO$OOOOOOOOO$OOO$$$$$$$$$OOOooooooooOOO$$OOO$OOO  o ooOOOO$OOOOOOOOOO$$OOOOOOOOO$$$$$$$OOOOO$OO$",
"OOOOoooOO$O$OO$OOOOOOOO$$O$$$$$OOOOOOOOOOOOOOO$O$$$$$$$$$O$OooooooooOO$OO$$OOOooo ooooOO$OO$OOOO$OOOOOOOOOOOO$O$$$$$$OO$O$$OO$OO",
"OOOOooOOOOOOOO$OOO$OOO$OOO$O$$O$OOooOOOOOOO$OOOOOO$$$OO$$OOOooooooooOOO$$$O$OOoooooOOOO$O$$$O$OOOOOOOOOOOOO$$O$O$$$$$$O$OO$OO$$O",
"$OOOooOOOOOOO$O$$$OOOOOOO$$$O$$OooooOOOoOOOO$OO$$OOO$$$$O$ooooooooooO$OOOOOOOOOOooOOOOOO$O$O$O$O$OOO$OOOOOOOO$O$O$$O$O$OOOOOOOO$",
"O$OOOOOOOOOOO$$OO$O$OOO$$O$O$$$Oooo ooOOOOOOOOOO$O$O$$OO$$OOooooooooOOO$O$O$$O$OOoOOOOooOOOOO$$OO$OOOOOOOOOOOOOOO$$$OO$OOOooOO$$",
"$O$OOOOOOO$OO$O$$OO$$OO$O$OOOOOOoo oooOOOOOOOOOOOOO$OO$$$OOOooooooooOO$O$O$OO$$OOooooOOoOOoOOOO$OOOOOOOOOOOOOO$OOOO$O$O$$OooO$$O",
"OOOOOOOOOOO$$O$O$$OOO$OO$$OOOOOOoo oooO$$$OOOOOOOOOO$$$$OOOOooooooooOO$$$OO$$O$OOooooOoooooOOOOO$OOOOOOOOOO$OOOO$OOO$$OOOOooooO$",
"OoOOOooO$O$OO$$$$O$OOOO$OOOOOOOOo ooooOO$$$O$OOooOO$O$OO$OOOooooooooO$$O$$$$$$$OOOoooOooooooOOO$O$OOOOOOOOOOOOOOOOO$OOOOOOoooooO",
"oooooo oOO$O$$$$O$$O$OO$$OOOOoooo oooo$$$$$$OOooooOO$$$OOOOoooooOOOO$O$O$$$$$&$$OOOOOOooooooOOO$$OOOOOOOoooooooOOOOOOOOOOooooooo",
"oooooo oOO$$$$$$$$O$OO$OOOOOOooo oooOOO$$&&$$OooooOOO$$$OOOOooooOO$$$$$$O$$$$$&$OOOOOOoooooOOOOOO$$OO$OOooooooooOO$OOOOOoooooooo",
"oooooo  OOO$$$$$$OO$$$$$$OOOooo   oOO$O$&&&$$$OOoooOO$O$OOooo ooOO$$$$$$$$$$$$$$OoooooooooooOOOOO$OOOOOOooOOoOooOoO$OOOOoOoooooo",
"oooo  o OOO$$O$O$$$O$OO$O$OOoo ooooOO$$$$&$$$OOOooOO$O$OOoooooooO$O$$$$$$$$$$$$$ooooooooo OOOOO$$O$OOOOOOOOOOOooOOOO$OOOOooOOooo",
"ooo     oOO$$$O$OO$O$OO$$O$Oooo   ooOO$O$$$$$OOOOOO$O$OOOOooooOOO$$$$$$O$$$$$$$Oooo ooooo ooOOOOO$O$OOOOO$OOOOOOOOOOOOOOOOOOoOOo",
"Ooooo  ooOOOOO$$O$O$O$$OO$OOooooo ooOOOO$$$$$$OOO$OO$O$$OOooooOOO$$$$$$$$$$$$$O$ooooooooooooOO$OOOOO$O$OO$O$$OOOOOOOOOOOOO$OOOOO",
"OOoo  ooOOO$$O$O$O$O$OO$O$OOooo ooooOOOOO$$O$OOOO$OOOOO$OOoooooOO$O$O$$$$$$$O$$OooooooOoooooOO$OOOOOO$OOOOO$O$OOOOOO$OOO$$O$$OOO",
"Ooo o ooOO$OOOOOOO$OOO$OOOOOoooooooooOOO$$O$OOOOOO$OOO$OOOOOooOOOOO$$OOO$O$$$$OOoo oooooOoooOO$$O$OOOOO$O$OOOOOOOOOOOO$$$O$$OO$O"
};
